<svg width="375" height="353" viewBox="0 0 375 353" fill="none" xmlns="http://www.w3.org/2000/svg">
<path d="M0 40.9049L0.015 50.8424L0 58.3799L0.015 67.8449L0 84.5099L0.015 94.7774L0 138.157L0.015 147.375L0 156.63L0.015 166.815L0 202.74L0.015 212.572L0 220.732L0.015 230.595L0 239.137L0.015 259.087L0 267.465L0.015 277.822L0 336.42L0.015 352.252H375V14.7524L361.558 22.6992L318.537 17.1327L280.64 22.6992L193.786 14.7524L135.75 22.6992L76.2175 14.7524L19.7267 22.6992L0 14.7524V40.9049Z" fill="#222651"/>
<rect y="286.252" width="375" height="66" fill="#92B79C"/>
<g style="mix-blend-mode:screen" opacity="0.45">
<ellipse cx="187.125" cy="318.885" rx="165.697" ry="27.3825" fill="url(#paint0_radial)"/>
</g>
<g style="mix-blend-mode:color-dodge" opacity="0.35">
<ellipse cx="187.125" cy="316.148" rx="140.685" ry="18.0975" fill="url(#paint1_radial)"/>
</g>
<g style="mix-blend-mode:overlay" opacity="0.55">
<rect y="14.7524" width="375" height="337.5" fill="url(#paint2_radial)"/>
</g>
<g style="mix-blend-mode:screen" opacity="0.25">
<path d="M89.955 10.455L109.327 294.855H233.587L98.0925 14.7525L91.7625 9.50248C91.4193 9.21329 90.9351 9.16097 90.5381 9.37019C90.141 9.57942 89.9104 10.0084 89.955 10.455Z" fill="url(#paint3_linear)"/>
</g>
<g style="mix-blend-mode:screen" opacity="0.25">
<path d="M265.68 14.7524V294.855H141.412L253.612 14.7524H265.68Z" fill="url(#paint4_linear)"/>
</g>
<g style="mix-blend-mode:screen" opacity="0.55">
<path d="M38.25 0L77.3775 339.983L179.535 323.017L67.86 58.5975L38.25 0Z" fill="url(#paint5_linear)"/>
</g>
<g style="mix-blend-mode:screen" opacity="0.55">
<path d="M342.367 5.9625L311.632 312.668L209.475 295.703L325.252 0L342.367 5.9625Z" fill="url(#paint6_linear)"/>
</g>
<g style="mix-blend-mode:soft-light">
<circle cx="187.5" cy="225.24" r="92.445" fill="url(#paint7_radial)"/>
</g>
<g style="mix-blend-mode:screen">
<path d="M179.932 143.438L184.942 144.75L179.932 146.063L178.612 151.08L177.3 146.063L172.29 144.75L177.3 143.438L178.612 138.42L179.932 143.438Z" fill="url(#paint8_radial)"/>
</g>
<g style="mix-blend-mode:screen">
<path d="M214.53 228.622L217.852 229.492L214.53 230.362L213.66 233.685L212.79 230.362L209.475 229.492L212.79 228.622L213.66 225.307L214.53 228.622Z" fill="url(#paint9_radial)"/>
</g>
<g style="mix-blend-mode:screen">
<path d="M257.347 237.285L259.792 237.93L257.347 238.575L256.702 241.02L256.065 238.575L253.612 237.93L256.065 237.285L256.702 234.84L257.347 237.285Z" fill="url(#paint10_radial)"/>
</g>
<g style="mix-blend-mode:screen">
<path d="M115.365 226.785L117.81 227.43L115.365 228.067L114.72 230.52L114.075 228.067L111.63 227.43L114.075 226.785L114.72 224.34L115.365 226.785Z" fill="url(#paint11_radial)"/>
</g>
<g style="mix-blend-mode:screen">
<path d="M156.068 216.87L158.513 217.515L156.068 218.152L155.423 220.605L154.778 218.152L152.333 217.515L154.778 216.87L155.423 214.417L156.068 216.87Z" fill="url(#paint12_radial)"/>
</g>
<g style="mix-blend-mode:screen">
<path d="M247.087 177.84L248.797 178.29L247.087 178.74L246.637 180.45L246.187 178.74L244.485 178.29L246.187 177.84L246.637 176.137L247.087 177.84Z" fill="url(#paint13_radial)"/>
</g>
<g style="mix-blend-mode:screen">
<path d="M133.748 276.075L135.458 276.525L133.748 276.975L133.305 278.677L132.855 276.975L131.145 276.525L132.855 276.075L133.305 274.365L133.748 276.075Z" fill="url(#paint14_radial)"/>
</g>
<g style="mix-blend-mode:screen">
<path d="M144.472 179.287L146.482 179.812L144.472 180.337L143.947 182.347L143.422 180.337L141.412 179.812L143.422 179.287L143.947 177.277L144.472 179.287Z" fill="url(#paint15_radial)"/>
</g>
<g style="mix-blend-mode:screen">
<path d="M231.578 269.152L233.588 269.677L231.578 270.202L231.053 272.212L230.528 270.202L228.518 269.677L230.528 269.152L231.053 267.142L231.578 269.152Z" fill="url(#paint16_radial)"/>
</g>
<g style="mix-blend-mode:screen">
<path d="M172.717 258.322L174.352 258.75L172.717 259.177L172.29 260.82L171.855 259.177L170.22 258.75L171.855 258.322L172.29 256.68L172.717 258.322Z" fill="url(#paint17_radial)"/>
</g>
<g style="mix-blend-mode:overlay" opacity="0.35">
<path d="M0 14.7524H23.6477H375V352.252H0V14.7524Z" fill="url(#paint18_radial)"/>
</g>
<g clip-path="url(#clip0)">
<g filter="url(#filter0_d)">
<path d="M256 285.5C256 270.867 267.867 259 282.5 259C297.133 259 309 270.867 309 285.5C309 300.133 297.133 312 282.5 312C267.867 312 256 300.133 256 285.5Z" fill="#5B4F3F"/>
<path d="M282.5 258.5C267.591 258.5 255.5 270.591 255.5 285.5C255.5 300.409 267.591 312.5 282.5 312.5C297.409 312.5 309.5 300.409 309.5 285.5C309.5 270.591 297.409 258.5 282.5 258.5Z" stroke="white"/>
</g>
<path fill-rule="evenodd" clip-rule="evenodd" d="M300 293.922L295.153 296.905C295.831 297.154 296.372 297.662 296.659 298.581C297.462 301.282 295.202 302.09 293.126 302.831L293.126 302.831C292.818 302.941 292.514 303.05 292.225 303.163C291.27 303.531 289.616 303.952 287.654 304.374C290.104 305.163 291.716 306.427 291.493 307C291.493 307 286.869 306.319 282.011 305.454C277.153 306.319 272.528 307 272.528 307C272.305 306.427 273.918 305.173 276.368 304.374C274.405 303.952 272.751 303.531 271.796 303.163C271.507 303.05 271.203 302.941 270.895 302.831L270.895 302.831C268.82 302.09 266.559 301.282 267.362 298.581C267.628 297.673 268.169 297.165 268.847 296.916L264 293.933L264.626 293.566L266.376 294.225L266.959 292.993L267.659 292.971L267.84 292.733L269.272 293.079L269.378 294.138L272.178 290.161C272.442 289.468 272.598 287.928 272.774 286.185C273.092 283.034 273.476 279.222 274.692 278.575C276.028 277.862 278.022 277.764 278.054 277.764C278.839 277.656 279.624 277.613 280.292 277.602C280.345 277.516 280.695 276.846 280.345 275.505C279.868 275.095 279.391 274.5 279.03 273.668C278.935 273.43 278.839 273.171 278.754 272.89C278.447 272.922 278.235 272.782 278.054 271.723C277.885 270.771 278.044 270.501 278.288 270.404H278.266V270.209C278.309 266.124 279.454 265 282 265C284.546 265 285.691 266.124 285.712 270.188V270.382C285.712 270.382 285.691 270.372 285.649 270.361C285.925 270.447 286.105 270.685 285.935 271.701C285.755 272.771 285.543 272.901 285.235 272.868C285.161 273.149 285.065 273.409 284.959 273.646C284.599 274.479 284.121 275.073 283.644 275.484C283.294 276.824 283.644 277.494 283.697 277.581C284.365 277.602 285.15 277.645 285.935 277.743C285.935 277.743 287.951 277.829 289.298 278.553C290.518 279.203 290.905 283.039 291.224 286.197C291.398 287.926 291.553 289.451 291.811 290.139L294.622 294.128L294.728 293.068L296.16 292.723L296.341 292.96L297.041 292.982L297.624 294.214L299.374 293.555L300 293.922ZM296.627 293.674L295.916 293.414L295.534 293.62L296.012 294.819L296.871 294.495L296.627 293.674ZM285.617 270.372C285.628 270.372 285.636 270.374 285.643 270.377C285.651 270.38 285.659 270.382 285.67 270.382C285.658 270.382 285.645 270.379 285.635 270.376C285.628 270.373 285.621 270.372 285.617 270.372ZM268.084 293.425L267.373 293.685L267.129 294.506L267.988 294.83L268.466 293.63L268.084 293.425ZM268.89 296.884L274.936 290.723C275.349 289.502 275.509 288.021 275.71 286.119C275.88 285.387 275.974 284.722 276.052 284.171C276.179 283.275 276.263 282.682 276.559 282.595C276.442 283.32 276.4 284.022 276.495 284.606C276.509 284.691 276.523 284.779 276.537 284.867L276.537 284.868C276.901 287.134 277.445 290.52 276.251 298.84L276.056 298.731C275.095 298.192 274.388 297.796 274.13 297.694L274.098 297.682C272.858 297.214 270.509 296.327 268.89 296.884ZM287.749 298.84C288.81 298.245 289.595 297.813 289.87 297.705C291.101 297.23 293.477 296.322 295.11 296.884L289.064 290.723C288.673 289.568 288.519 288.181 288.324 286.424C288.313 286.324 288.301 286.222 288.29 286.119C288.121 285.385 288.027 284.719 287.949 284.168C287.821 283.268 287.738 282.676 287.441 282.595C287.558 283.32 287.6 284.022 287.505 284.606C287.494 284.672 287.483 284.738 287.472 284.806C287.099 287.072 286.544 290.444 287.749 298.84Z" fill="#EBF1F2"/>
<circle cx="282" cy="285" r="2" fill="#148E56"/>
<circle cx="282.5" cy="284.5" r="1.5" fill="#29C183"/>
<circle cx="282" cy="277" r="2" fill="#3B929B"/>
<circle cx="282.5" cy="276.5" r="1.5" fill="#5DB8C1"/>
<circle cx="282" cy="270" r="2" fill="#1C4F54"/>
<circle cx="282.5" cy="270.5" r="1.5" fill="#337180"/>
<circle cx="282" cy="299" r="2" fill="#DD1212"/>
<circle cx="282" cy="294" r="2" fill="#BC781E"/>
<circle cx="282.5" cy="294.5" r="1.5" fill="#E79E2F"/>
<circle cx="282" cy="289" r="2" fill="#CCAC27"/>
<circle cx="282.5" cy="289.5" r="1.5" fill="#EDC92F"/>
<circle cx="282.5" cy="299.5" r="1.5" fill="#E83131"/>
<circle cx="282" cy="265" r="2" fill="#714E7C"/>
<circle cx="282.5" cy="265.5" r="1.5" fill="#A076AB"/>
<g filter="url(#filter1_d)">
<path d="M188.5 259C203.135 259 215 270.865 215 285.5C215 300.135 203.135 312 188.5 312C173.865 312 162 300.135 162 285.5C162 270.865 173.865 259 188.5 259Z" fill="#324D5B"/>
<path d="M215.5 285.5C215.5 270.588 203.412 258.5 188.5 258.5C173.588 258.5 161.5 270.588 161.5 285.5C161.5 300.412 173.588 312.5 188.5 312.5C203.412 312.5 215.5 300.412 215.5 285.5Z" stroke="white"/>
</g>
<path d="M210 301.801C203.737 300.649 196.688 300 189.229 300C181.586 300 174.376 300.684 168 301.891C172.853 308.039 180.436 312 188.964 312C197.534 312 205.149 308.001 210 301.801Z" fill="#51BBA8"/>
<path d="M188.5 272C196.508 272 203 277.373 203 284C203 290.628 196.508 296 188.5 296C180.492 296 174 290.628 174 284C174 277.373 180.492 272 188.5 272Z" fill="#E2574C"/>
<path fill-rule="evenodd" clip-rule="evenodd" d="M195.44 281C194.483 281 193.539 280.551 192.98 279.714L187.831 272C188.148 272.006 188.463 272.02 188.774 272.043L193.631 279.318C194.026 279.911 194.702 280.265 195.44 280.265C195.919 280.265 196.372 280.116 196.752 279.834L199.591 277.729C199.734 277.935 199.872 278.144 200 278.358L197.225 280.415C196.692 280.81 196.063 281 195.44 281ZM177.775 280.415L175 278.357C175.128 278.144 175.266 277.935 175.409 277.729L178.249 279.834C178.628 280.116 179.082 280.265 179.56 280.265C180.298 280.265 180.974 279.911 181.37 279.319L186.226 272.043C186.537 272.02 186.852 272.007 187.169 272.001L182.02 279.714C181.461 280.551 180.518 281 179.56 281C178.937 281 178.308 280.81 177.775 280.415Z" fill="#D0564E"/>
<path d="M188.5 300C197.613 300 205 300.672 205 301.5C205 302.328 197.613 303 188.5 303C179.387 303 172 302.328 172 301.5C172 300.672 179.387 300 188.5 300Z" fill="#419686"/>
<path d="M198.048 281.624C196.648 282.709 194.615 282.358 193.662 280.867L188 272L182.338 280.867C181.386 282.358 179.352 282.709 177.952 281.624L171 276.235L171.291 277.975C172.511 285.273 173.125 291.6 173.125 299H202.875C202.875 291.6 203.488 285.273 204.709 277.975L205 276.235L198.048 281.624Z" fill="#F6C37A"/>
<path d="M182 280.007L183.512 290H191.315L193 280.751C192.794 280.567 192.608 280.351 192.454 280.099L187.513 272H186.885L182 280.007Z" fill="#F8CF95"/>
<path fill-rule="evenodd" clip-rule="evenodd" d="M171.291 277.881L171 276L173.61 278.188C173.413 279.202 172.594 279.964 171.603 280C171.595 279.943 171.587 279.886 171.578 279.829C171.486 279.184 171.393 278.54 171.291 277.881ZM204.709 277.881C204.598 278.598 204.497 279.299 204.397 280C203.406 279.964 202.586 279.202 202.389 278.188L205 276L204.709 277.881Z" fill="#E8B873"/>
<path d="M187 274.425C187.406 274.778 187.926 275 188.5 275C189.074 275 189.593 274.778 190 274.425L188.5 272L187 274.425Z" fill="#EAC48D"/>
<path d="M204 290H173C173.041 290.664 173.08 291.331 173.113 292H203.886C203.92 291.331 203.959 290.664 204 290Z" fill="#DDAF6E"/>
<path fill-rule="evenodd" clip-rule="evenodd" d="M188.5 269C187.332 269 186.386 269.896 186.386 271C186.386 272.104 187.332 273 188.5 273C189.668 273 190.614 272.104 190.614 271C190.614 269.896 189.668 269 188.5 269ZM172.114 274C170.947 274 170 274.896 170 276C170 277.104 170.947 278 172.114 278C173.282 278 174.229 277.104 174.229 276C174.229 274.896 173.282 274 172.114 274ZM202.771 276C202.771 274.896 203.718 274 204.886 274C206.053 274 207 274.896 207 276C207 277.104 206.053 278 204.886 278C203.718 278 202.771 277.104 202.771 276Z" fill="#F8CF95"/>
<path d="M173 298H203V299H173V298Z" fill="#D4654F"/>
<path fill-rule="evenodd" clip-rule="evenodd" d="M178.278 294C177.572 294 177 294.671 177 295.5C177 296.329 177.572 297 178.278 297C178.984 297 179.556 296.329 179.556 295.5C179.556 294.671 178.984 294 178.278 294ZM183.389 294C182.683 294 182.111 294.671 182.111 295.5C182.111 296.329 182.683 297 183.389 297C184.095 297 184.667 296.329 184.667 295.5C184.667 294.671 184.095 294 183.389 294ZM197.444 295.5C197.444 294.671 198.016 294 198.722 294C199.428 294 200 294.671 200 295.5C200 296.329 199.428 297 198.722 297C198.016 297 197.444 296.329 197.444 295.5ZM193.611 294C192.905 294 192.333 294.671 192.333 295.5C192.333 296.329 192.905 297 193.611 297C194.317 297 194.889 296.329 194.889 295.5C194.889 294.671 194.317 294 193.611 294ZM187.222 295.5C187.222 294.671 187.794 294 188.5 294C189.206 294 189.778 294.671 189.778 295.5C189.778 296.329 189.206 297 188.5 297C187.794 297 187.222 296.329 187.222 295.5Z" fill="#F2F1EF"/>
<path d="M188 281C189.104 281 190 281.896 190 283C190 284.104 189.104 285 188 285C186.896 285 186 284.104 186 283C186 281.896 186.896 281 188 281Z" fill="#2EA9D3"/>
<path fill-rule="evenodd" clip-rule="evenodd" d="M203.935 291.087H173.065C172.477 291.087 172 290.62 172 290.043C172 289.468 172.477 289 173.065 289H203.935C204.523 289 205 289.468 205 290.043C205 290.62 204.523 291.087 203.935 291.087ZM173.065 298.913H203.935C204.523 298.913 205 299.381 205 299.957C205 300.532 204.523 301 203.935 301H173.065C172.477 301 172 300.532 172 299.957C172 299.381 172.477 298.913 173.065 298.913Z" fill="#FBE1BD"/>
<path fill-rule="evenodd" clip-rule="evenodd" d="M178.801 295.573C178.091 295.573 177.515 295.096 177.515 294.507C177.515 294.322 177.576 294.151 177.675 294C177.275 294.181 177 294.529 177 294.933C177 295.523 177.576 296 178.287 296C178.775 296 179.195 295.772 179.413 295.44C179.23 295.523 179.024 295.573 178.801 295.573ZM183.948 295.573C183.237 295.573 182.661 295.096 182.661 294.507C182.661 294.322 182.723 294.151 182.822 294C182.422 294.181 182.147 294.529 182.147 294.933C182.147 295.523 182.723 296 183.433 296C183.922 296 184.341 295.772 184.56 295.44C184.377 295.523 184.171 295.573 183.948 295.573ZM198.102 294.507C198.102 295.096 198.678 295.573 199.389 295.573C199.611 295.573 199.817 295.523 200 295.44C199.782 295.772 199.362 296 198.874 296C198.163 296 197.587 295.523 197.587 294.933C197.587 294.529 197.862 294.181 198.262 294C198.163 294.151 198.102 294.322 198.102 294.507ZM189.095 295.573C188.384 295.573 187.808 295.096 187.808 294.507C187.808 294.322 187.87 294.151 187.969 294C187.568 294.181 187.294 294.529 187.294 294.933C187.294 295.523 187.869 296 188.58 296C189.068 296 189.488 295.772 189.706 295.44C189.524 295.523 189.318 295.573 189.095 295.573ZM192.955 294.507C192.955 295.096 193.531 295.573 194.242 295.573C194.465 295.573 194.67 295.523 194.853 295.44C194.635 295.772 194.215 296 193.727 296C193.016 296 192.44 295.523 192.44 294.933C192.44 294.529 192.715 294.181 193.116 294C193.016 294.151 192.955 294.322 192.955 294.507Z" fill="#D6B98F"/>
<path d="M188.747 284.451C187.534 284.451 186.549 283.466 186.549 282.253C186.549 281.786 186.697 281.356 186.945 281C186.375 281.397 186 282.055 186 282.802C186 284.016 186.984 285 188.198 285C188.945 285 189.603 284.625 190 284.055C189.644 284.303 189.214 284.451 188.747 284.451Z" fill="#3293B2"/>
<g filter="url(#filter2_d)">
<path d="M123 285.5C123 301.24 110.24 314 94.5 314C86.6742 314 79.585 310.846 74.4346 305.739C69.226 300.575 66 293.414 66 285.5C66 269.76 78.7599 257 94.5 257C110.24 257 123 269.76 123 285.5Z" fill="url(#paint19_radial)"/>
<path d="M94.5 314.5C110.516 314.5 123.5 301.516 123.5 285.5C123.5 269.484 110.516 256.5 94.5 256.5C78.4837 256.5 65.5 269.484 65.5 285.5C65.5 293.553 68.7831 300.84 74.0825 306.094C79.3228 311.29 86.537 314.5 94.5 314.5Z" stroke="white"/>
</g>
<path opacity="0.5" d="M108.689 304.424C108.428 304.392 108.163 304.373 107.893 304.373C107.314 304.373 106.753 304.45 106.219 304.593C105.737 302.48 104.22 300.76 102.227 299.985C102.235 299.894 102.24 299.801 102.24 299.707C102.24 297.959 100.816 296.541 99.0587 296.541C98.9942 296.541 98.9303 296.544 98.867 296.547C98.4531 294.523 96.6547 293 94.4987 293C92.51 293 90.8258 294.297 90.2519 296.087C89.0476 296.304 88.1251 297.318 88.0508 298.56C85.4196 298.748 83.2086 300.441 82.2818 302.78C81.1135 303.123 80.0752 303.766 79.2557 304.62C78.1041 304.139 76.8397 303.873 75.5125 303.873C74.6433 303.873 73.8012 303.988 73 304.202C73.4561 304.722 73.9309 305.226 74.4231 305.711C79.6153 310.835 86.762 314 94.6514 314C103.679 314 111.733 309.855 117 303.374C116.033 302.446 114.72 301.874 113.271 301.874C111.333 301.874 109.636 302.894 108.689 304.424Z" fill="#ECF0F1"/>
<path d="M98 298.132C98 302.931 94 309 94 309C94 309 90 303.375 90 298.132C90 295.85 91.7908 294 94 294C96.2092 294 98 295.85 98 298.132Z" fill="#E87E04"/>
<path d="M98 296.755C98 299.954 94.9999 304 94.9999 304C94.9999 304 92 300.25 92 296.755C92 295.233 93.3431 294 94.9999 294C96.6568 294 98 295.233 98 296.755Z" fill="#F59D00"/>
<path d="M97 296.653C97 298.572 95 301 95 301C95 301 93 298.75 93 296.653C93 295.74 93.8954 295 95 295C96.1046 295 97 295.74 97 296.653Z" fill="#F2C500"/>
<path d="M101.744 268.033C101.582 267.688 94.4859 270.188 94.4859 270.188C94.4859 270.188 87.3898 267.688 87.2279 268.033C87.2372 268.039 87.2471 268.046 87.2565 268.052C81.1609 281.033 89.3459 295.495 89.3459 295.495C89.3459 295.495 89.5911 296 90.1974 296H94.4859C94.4859 296 98.1662 296 98.8255 296C99.4318 296 99.6643 295.495 99.6643 295.495C99.6643 295.495 107.842 281.023 101.735 268.039C101.738 268.037 101.741 268.035 101.744 268.033Z" fill="#ECF0F1"/>
<path d="M101.619 268C108.039 281.002 99.4428 295.494 99.4428 295.494C99.4428 295.494 99.1986 296 98.5612 296C97.8683 296 94 296 94 296V270.153C97.8918 269.911 100.305 268.88 101.619 268Z" fill="#BDC3C7"/>
<path d="M94.4999 259C91.7173 259 88.5193 264.695 87 267.835C88.2921 268.717 90.6739 269.757 94.4999 270C98.326 269.757 100.708 268.717 102 267.835C100.481 264.695 97.2826 259 94.4999 259Z" fill="#E94B35"/>
<path d="M94 259V270C97.571 269.757 99.794 268.717 101 267.835C99.5819 264.695 96.5971 259 94 259Z" fill="#C23824"/>
<path d="M88.0718 285L90.9697 293.368C91.0719 293.663 90.9068 293.899 90.6029 293.892C90.6029 293.892 85.1921 293.307 85.1874 298.541C85.1874 298.541 85.2098 299 84.809 299C84.4083 299 82.7244 299 82.7244 299C82.4204 299 82.0721 298.765 81.9503 298.478C81.9503 298.478 77.4398 287.846 88.0718 285V285Z" fill="#E87E04"/>
<path d="M101.928 285L99.0303 293.368C98.9281 293.663 99.0932 293.899 99.3971 293.892C99.3971 293.892 104.808 293.307 104.813 298.541C104.813 298.541 104.79 299 105.191 299C105.592 299 107.276 299 107.276 299C107.58 299 107.928 298.765 108.05 298.478C108.05 298.478 112.56 287.846 101.928 285V285Z" fill="#D55400"/>
<circle cx="94" cy="277" r="5" fill="#E94B35"/>
<path d="M94.5001 282C92.0187 282 90 279.981 90 277.5C90 275.019 92.0187 273 94.5001 273C96.9814 273 99 275.019 99 277.5C99.0001 279.981 96.9814 282 94.5001 282Z" fill="#2B3E51"/>
<path d="M94.7228 282L99 277.723C98.9712 276.672 98.5521 275.718 97.882 275L92 280.882C92.7181 281.552 93.6723 281.971 94.7228 282Z" fill="#33495F"/>
<path d="M90.3511 279L96 273.351C95.6101 273.174 95.189 273.053 94.7473 273L90 277.747C90.0528 278.189 90.1734 278.61 90.3511 279Z" fill="#33495F"/>
<path d="M94.625 285C94.2799 285 94 285.255 94 285.569V298.431C94 298.745 94.2799 299 94.625 299H95V285H94.625Z" fill="#E87E04"/>
<path d="M94.2857 285H94V299H94.2857C94.6801 299 95 298.745 95 298.431V285.569C95 285.255 94.6801 285 94.2857 285Z" fill="#D55400"/>
<path opacity="0.5" d="M73.0535 282.719C73.2707 282.5 73.4813 282.572 73.5213 282.88L73.573 283.278C73.6131 283.586 73.8697 283.954 74.1431 284.096L74.4955 284.278C74.7689 284.419 74.766 284.644 74.4889 284.778L74.1318 284.951C73.8548 285.085 73.5887 285.446 73.5405 285.753L73.4785 286.149C73.4303 286.456 73.2181 286.523 73.0066 286.297L72.7344 286.007C72.5229 285.781 72.102 285.636 71.7988 285.685L71.4081 285.747C71.1049 285.796 70.9766 285.612 71.123 285.338L71.3118 284.986C71.4582 284.713 71.4642 284.262 71.325 283.985L71.1456 283.627C71.0064 283.35 71.1394 283.17 71.4413 283.226L71.8302 283.299C72.132 283.356 72.5567 283.223 72.7739 283.003L73.0535 282.719Z" fill="#ECF0F1"/>
<path d="M77.4721 268.348C77.5118 268.04 77.7222 267.967 77.9397 268.186L78.2955 268.546C78.513 268.766 78.9377 268.899 79.2396 268.842L79.7335 268.748C80.0354 268.691 80.1685 268.872 80.0297 269.149L79.8023 269.603C79.6633 269.881 79.6698 270.331 79.8165 270.604L80.0567 271.052C80.2034 271.325 80.0753 271.509 79.7722 271.461L79.2756 271.382C78.9723 271.334 78.5515 271.479 78.3405 271.705L77.9949 272.075C77.7838 272.301 77.5715 272.234 77.523 271.927L77.4435 271.424C77.3949 271.117 77.1285 270.756 76.8513 270.623L76.3975 270.404C76.1204 270.27 76.1171 270.045 76.3904 269.903L76.8378 269.671C77.1111 269.53 77.3672 269.161 77.407 268.853L77.4721 268.348Z" fill="#ECF0F1"/>
<path d="M115.383 287.3C115.452 286.997 115.668 286.944 115.864 287.184L116.571 288.048C116.767 288.288 117.177 288.461 117.483 288.433L118.586 288.333C118.892 288.305 119.008 288.497 118.844 288.76L118.251 289.708C118.087 289.971 118.051 290.42 118.172 290.706L118.607 291.739C118.727 292.025 118.582 292.196 118.285 292.119L117.212 291.841C116.914 291.764 116.482 291.868 116.251 292.073L115.416 292.811C115.185 293.015 114.98 292.929 114.96 292.618L114.89 291.498C114.87 291.188 114.639 290.803 114.375 290.643L113.425 290.067C113.161 289.908 113.179 289.683 113.464 289.568L114.494 289.154C114.779 289.039 115.068 288.697 115.137 288.394L115.383 287.3Z" fill="#ECF0F1"/>
<path opacity="0.5" d="M110.502 271.591C110.71 271.362 110.923 271.425 110.976 271.731L111.048 272.148C111.102 272.455 111.373 272.811 111.652 272.941L112.032 273.117C112.311 273.246 112.318 273.471 112.047 273.617L111.678 273.816C111.407 273.961 111.156 274.334 111.121 274.643L111.073 275.063C111.038 275.372 110.829 275.448 110.608 275.232L110.308 274.937C110.087 274.721 109.66 274.595 109.36 274.656L108.95 274.74C108.65 274.802 108.514 274.623 108.648 274.344L108.832 273.964C108.966 273.684 108.953 273.234 108.802 272.963L108.597 272.594C108.447 272.323 108.572 272.137 108.876 272.181L109.289 272.24C109.593 272.283 110.012 272.132 110.22 271.903L110.502 271.591Z" fill="#ECF0F1"/>
<g filter="url(#filter3_d)">
<path d="M270.171 249.49C269.657 249.49 269.194 249.38 268.781 249.16C268.367 248.94 268.054 248.64 267.841 248.26L268.611 247.46C268.797 247.72 269.031 247.927 269.311 248.08C269.591 248.233 269.881 248.31 270.181 248.31C270.541 248.31 270.834 248.2 271.061 247.98C271.294 247.76 271.411 247.473 271.411 247.12C271.411 246.773 271.301 246.493 271.081 246.28C270.861 246.067 270.587 245.96 270.261 245.96C270.041 245.96 269.834 246.01 269.641 246.11C269.454 246.203 269.304 246.34 269.191 246.52H268.021L268.841 242.29H272.341V243.51H269.811L269.521 245.1C269.601 245.02 269.717 244.953 269.871 244.9C270.031 244.84 270.224 244.81 270.451 244.81C270.897 244.81 271.294 244.907 271.641 245.1C271.994 245.293 272.271 245.563 272.471 245.91C272.677 246.25 272.781 246.643 272.781 247.09C272.781 247.57 272.667 247.99 272.441 248.35C272.214 248.71 271.904 248.99 271.511 249.19C271.117 249.39 270.671 249.49 270.171 249.49ZM276.23 248V240.9H278.81C279.584 240.9 280.23 241.06 280.75 241.38C281.27 241.693 281.66 242.12 281.92 242.66C282.18 243.193 282.31 243.787 282.31 244.44C282.31 245.16 282.167 245.787 281.88 246.32C281.594 246.853 281.187 247.267 280.66 247.56C280.134 247.853 279.517 248 278.81 248H276.23ZM280.92 244.44C280.92 243.98 280.837 243.577 280.67 243.23C280.504 242.877 280.264 242.603 279.95 242.41C279.637 242.21 279.257 242.11 278.81 242.11H277.61V246.79H278.81C279.264 246.79 279.647 246.69 279.96 246.49C280.274 246.283 280.51 246.003 280.67 245.65C280.837 245.29 280.92 244.887 280.92 244.44ZM282.84 246.45C282.84 246.11 282.933 245.813 283.12 245.56C283.313 245.3 283.58 245.1 283.92 244.96C284.26 244.82 284.65 244.75 285.09 244.75C285.31 244.75 285.533 244.77 285.76 244.81C285.987 244.843 286.183 244.893 286.35 244.96V244.68C286.35 244.347 286.25 244.09 286.05 243.91C285.857 243.73 285.567 243.64 285.18 243.64C284.893 243.64 284.62 243.69 284.36 243.79C284.1 243.89 283.827 244.037 283.54 244.23L283.11 243.35C283.457 243.123 283.81 242.953 284.17 242.84C284.537 242.727 284.92 242.67 285.32 242.67C286.067 242.67 286.647 242.857 287.06 243.23C287.48 243.603 287.69 244.137 287.69 244.83V246.5C287.69 246.647 287.713 246.75 287.76 246.81C287.807 246.863 287.89 246.897 288.01 246.91V248C287.89 248.027 287.78 248.043 287.68 248.05C287.587 248.063 287.507 248.07 287.44 248.07C287.173 248.07 286.97 248.01 286.83 247.89C286.69 247.77 286.607 247.623 286.58 247.45L286.55 247.18C286.317 247.48 286.03 247.71 285.69 247.87C285.357 248.023 285.013 248.1 284.66 248.1C284.307 248.1 283.993 248.03 283.72 247.89C283.447 247.743 283.23 247.547 283.07 247.3C282.917 247.047 282.84 246.763 282.84 246.45ZM286.1 246.72C286.267 246.56 286.35 246.407 286.35 246.26V245.73C286.003 245.59 285.653 245.52 285.3 245.52C284.947 245.52 284.66 245.597 284.44 245.75C284.22 245.897 284.11 246.093 284.11 246.34C284.11 246.54 284.19 246.72 284.35 246.88C284.51 247.04 284.74 247.12 285.04 247.12C285.24 247.12 285.433 247.083 285.62 247.01C285.813 246.937 285.973 246.84 286.1 246.72ZM288.857 249.02C289.103 249.087 289.303 249.12 289.457 249.12C289.637 249.12 289.78 249.043 289.887 248.89C290 248.743 290.127 248.447 290.267 248L288.197 242.76H289.587L290.997 246.63L292.237 242.76H293.517L291.317 249.04C291.197 249.4 290.98 249.697 290.667 249.93C290.36 250.17 289.98 250.29 289.527 250.29C289.307 250.29 289.083 250.253 288.857 250.18V249.02ZM296.048 248.1C295.601 248.1 295.174 248.027 294.768 247.88C294.361 247.733 294.011 247.517 293.718 247.23L294.198 246.36C294.511 246.613 294.818 246.8 295.118 246.92C295.418 247.04 295.711 247.1 295.998 247.1C296.258 247.1 296.464 247.053 296.618 246.96C296.778 246.867 296.858 246.727 296.858 246.54C296.858 246.347 296.761 246.217 296.568 246.15C296.374 246.077 296.104 245.987 295.758 245.88C295.371 245.76 295.048 245.637 294.788 245.51C294.528 245.383 294.331 245.23 294.198 245.05C294.071 244.87 294.008 244.637 294.008 244.35C294.008 243.837 294.201 243.427 294.588 243.12C294.974 242.813 295.488 242.66 296.128 242.66C296.501 242.66 296.854 242.72 297.188 242.84C297.521 242.953 297.824 243.14 298.098 243.4L297.558 244.25C297.044 243.85 296.548 243.65 296.068 243.65C295.854 243.65 295.664 243.69 295.498 243.77C295.338 243.85 295.258 243.99 295.258 244.19C295.258 244.377 295.334 244.51 295.488 244.59C295.648 244.67 295.888 244.757 296.208 244.85C296.621 244.977 296.971 245.1 297.258 245.22C297.551 245.34 297.771 245.493 297.918 245.68C298.071 245.867 298.148 246.12 298.148 246.44C298.148 246.96 297.958 247.367 297.578 247.66C297.198 247.953 296.688 248.1 296.048 248.1Z" fill="white"/>
</g>
<g filter="url(#filter4_d)">
<path d="M172.354 245.64C172.767 245.707 173.101 245.907 173.354 246.24C173.614 246.567 173.744 246.96 173.744 247.42C173.744 247.84 173.637 248.203 173.424 248.51C173.211 248.817 172.907 249.053 172.514 249.22C172.127 249.387 171.671 249.47 171.144 249.47C170.131 249.47 169.357 249.15 168.824 248.51L169.584 247.56C169.757 247.78 169.964 247.95 170.204 248.07C170.451 248.19 170.751 248.25 171.104 248.25C171.511 248.25 171.821 248.167 172.034 248C172.247 247.84 172.354 247.597 172.354 247.27C172.354 246.923 172.231 246.657 171.984 246.47C171.737 246.283 171.364 246.19 170.864 246.19H170.584V245.19H170.894C171.301 245.19 171.617 245.1 171.844 244.92C172.077 244.733 172.194 244.497 172.194 244.21C172.194 243.943 172.101 243.743 171.914 243.61C171.727 243.47 171.484 243.4 171.184 243.4C170.564 243.4 170.091 243.667 169.764 244.2L168.924 243.26C169.064 243.06 169.254 242.883 169.494 242.73C169.741 242.577 170.021 242.457 170.334 242.37C170.654 242.283 170.987 242.24 171.334 242.24C171.787 242.24 172.184 242.313 172.524 242.46C172.871 242.607 173.141 242.813 173.334 243.08C173.527 243.347 173.624 243.657 173.624 244.01C173.624 244.277 173.571 244.527 173.464 244.76C173.357 244.987 173.207 245.18 173.014 245.34C172.827 245.493 172.607 245.593 172.354 245.64ZM179.341 240.92H180.621L181.431 243.27L182.251 240.92H183.521L182.301 244.15L183.201 246.41L185.211 240.9H186.711L183.871 248H182.681L181.431 245.02L180.191 248H179.001L176.171 240.9H177.651L179.671 246.41L180.551 244.15L179.341 240.92ZM189.035 248.1C188.468 248.1 187.978 247.977 187.565 247.73C187.158 247.483 186.842 247.157 186.615 246.75C186.388 246.337 186.275 245.89 186.275 245.41C186.275 244.917 186.385 244.463 186.605 244.05C186.832 243.63 187.152 243.297 187.565 243.05C187.978 242.797 188.472 242.67 189.045 242.67C189.618 242.67 190.108 242.797 190.515 243.05C190.922 243.297 191.232 243.627 191.445 244.04C191.665 244.447 191.775 244.887 191.775 245.36C191.775 245.533 191.765 245.683 191.745 245.81H187.695C187.728 246.217 187.878 246.537 188.145 246.77C188.418 247.003 188.732 247.12 189.085 247.12C189.352 247.12 189.602 247.057 189.835 246.93C190.075 246.797 190.238 246.623 190.325 246.41L191.475 246.73C191.282 247.13 190.972 247.46 190.545 247.72C190.118 247.973 189.615 248.1 189.035 248.1ZM187.665 244.96H190.405C190.365 244.567 190.215 244.25 189.955 244.01C189.702 243.763 189.392 243.64 189.025 243.64C188.665 243.64 188.355 243.763 188.095 244.01C187.842 244.25 187.698 244.567 187.665 244.96ZM195.021 248.1C194.455 248.1 193.965 247.977 193.551 247.73C193.145 247.483 192.828 247.157 192.601 246.75C192.375 246.337 192.261 245.89 192.261 245.41C192.261 244.917 192.371 244.463 192.591 244.05C192.818 243.63 193.138 243.297 193.551 243.05C193.965 242.797 194.458 242.67 195.031 242.67C195.605 242.67 196.095 242.797 196.501 243.05C196.908 243.297 197.218 243.627 197.431 244.04C197.651 244.447 197.761 244.887 197.761 245.36C197.761 245.533 197.751 245.683 197.731 245.81H193.681C193.715 246.217 193.865 246.537 194.131 246.77C194.405 247.003 194.718 247.12 195.071 247.12C195.338 247.12 195.588 247.057 195.821 246.93C196.061 246.797 196.225 246.623 196.311 246.41L197.461 246.73C197.268 247.13 196.958 247.46 196.531 247.72C196.105 247.973 195.601 248.1 195.021 248.1ZM193.651 244.96H196.391C196.351 244.567 196.201 244.25 195.941 244.01C195.688 243.763 195.378 243.64 195.011 243.64C194.651 243.64 194.341 243.763 194.081 244.01C193.828 244.25 193.685 244.567 193.651 244.96ZM202.158 248L200.628 245.74L199.918 246.44V248H198.578V240.7H199.918V245.12L202.028 242.77H203.448L201.498 244.99L203.588 248H202.158ZM206.055 248.1C205.608 248.1 205.181 248.027 204.775 247.88C204.368 247.733 204.018 247.517 203.725 247.23L204.205 246.36C204.518 246.613 204.825 246.8 205.125 246.92C205.425 247.04 205.718 247.1 206.005 247.1C206.265 247.1 206.471 247.053 206.625 246.96C206.785 246.867 206.865 246.727 206.865 246.54C206.865 246.347 206.768 246.217 206.575 246.15C206.381 246.077 206.111 245.987 205.765 245.88C205.378 245.76 205.055 245.637 204.795 245.51C204.535 245.383 204.338 245.23 204.205 245.05C204.078 244.87 204.015 244.637 204.015 244.35C204.015 243.837 204.208 243.427 204.595 243.12C204.981 242.813 205.495 242.66 206.135 242.66C206.508 242.66 206.861 242.72 207.195 242.84C207.528 242.953 207.831 243.14 208.105 243.4L207.565 244.25C207.051 243.85 206.555 243.65 206.075 243.65C205.861 243.65 205.671 243.69 205.505 243.77C205.345 243.85 205.265 243.99 205.265 244.19C205.265 244.377 205.341 244.51 205.495 244.59C205.655 244.67 205.895 244.757 206.215 244.85C206.628 244.977 206.978 245.1 207.265 245.22C207.558 245.34 207.778 245.493 207.925 245.68C208.078 245.867 208.155 246.12 208.155 246.44C208.155 246.96 207.965 247.367 207.585 247.66C207.205 247.953 206.695 248.1 206.055 248.1Z" fill="white"/>
</g>
<g filter="url(#filter5_d)">
<path d="M88.3196 242.76C88.2596 242.693 88.1329 242.607 87.9396 242.5C87.7463 242.387 87.5129 242.287 87.2396 242.2C86.9729 242.107 86.6963 242.06 86.4096 242.06C85.6563 242.06 85.2796 242.327 85.2796 242.86C85.2796 243.053 85.3396 243.207 85.4596 243.32C85.5796 243.433 85.7596 243.53 85.9996 243.61C86.2396 243.69 86.5396 243.777 86.8996 243.87C87.3663 243.99 87.7696 244.13 88.1096 244.29C88.4563 244.45 88.7196 244.663 88.8996 244.93C89.0863 245.19 89.1796 245.537 89.1796 245.97C89.1796 246.477 89.0563 246.887 88.8096 247.2C88.5696 247.507 88.2496 247.73 87.8496 247.87C87.4496 248.01 87.0163 248.08 86.5496 248.08C86.0163 248.08 85.4863 248 84.9596 247.84C84.4396 247.673 83.9763 247.447 83.5696 247.16L84.1796 245.97C84.2396 246.03 84.3463 246.11 84.4996 246.21C84.6529 246.303 84.8396 246.4 85.0596 246.5C85.2796 246.593 85.5196 246.673 85.7796 246.74C86.0396 246.807 86.3029 246.84 86.5696 246.84C87.3296 246.84 87.7096 246.597 87.7096 246.11C87.7096 245.903 87.6329 245.737 87.4796 245.61C87.3263 245.483 87.1096 245.377 86.8296 245.29C86.5563 245.203 86.2363 245.107 85.8696 245C85.4163 244.873 85.0396 244.733 84.7396 244.58C84.4463 244.42 84.2263 244.223 84.0796 243.99C83.9329 243.75 83.8596 243.447 83.8596 243.08C83.8596 242.593 83.9729 242.187 84.1996 241.86C84.4329 241.527 84.7463 241.277 85.1396 241.11C85.5329 240.937 85.9696 240.85 86.4496 240.85C86.9429 240.85 87.4029 240.93 87.8296 241.09C88.2563 241.25 88.6229 241.433 88.9296 241.64L88.3196 242.76ZM93.1152 247.73C92.9352 247.81 92.7119 247.89 92.4452 247.97C92.1852 248.05 91.9152 248.09 91.6352 248.09C91.3886 248.09 91.1619 248.047 90.9552 247.96C90.7486 247.873 90.5819 247.737 90.4552 247.55C90.3352 247.357 90.2752 247.107 90.2752 246.8V243.79H89.5852V242.76H90.2752V241.06H91.6152V242.76H92.7152V243.79H91.6152V246.35C91.6152 246.53 91.6619 246.66 91.7552 246.74C91.8552 246.82 91.9752 246.86 92.1152 246.86C92.2552 246.86 92.3919 246.837 92.5252 246.79C92.6586 246.743 92.7652 246.703 92.8452 246.67L93.1152 247.73ZM93.4531 246.45C93.4531 246.11 93.5465 245.813 93.7331 245.56C93.9265 245.3 94.1931 245.1 94.5331 244.96C94.8731 244.82 95.2631 244.75 95.7031 244.75C95.9231 244.75 96.1465 244.77 96.3731 244.81C96.5998 244.843 96.7965 244.893 96.9631 244.96V244.68C96.9631 244.347 96.8631 244.09 96.6631 243.91C96.4698 243.73 96.1798 243.64 95.7931 243.64C95.5065 243.64 95.2331 243.69 94.9731 243.79C94.7131 243.89 94.4398 244.037 94.1531 244.23L93.7231 243.35C94.0698 243.123 94.4231 242.953 94.7831 242.84C95.1498 242.727 95.5331 242.67 95.9331 242.67C96.6798 242.67 97.2598 242.857 97.6731 243.23C98.0931 243.603 98.3031 244.137 98.3031 244.83V246.5C98.3031 246.647 98.3265 246.75 98.3731 246.81C98.4198 246.863 98.5031 246.897 98.6231 246.91V248C98.5031 248.027 98.3931 248.043 98.2931 248.05C98.1998 248.063 98.1198 248.07 98.0531 248.07C97.7865 248.07 97.5831 248.01 97.4431 247.89C97.3031 247.77 97.2198 247.623 97.1931 247.45L97.1631 247.18C96.9298 247.48 96.6431 247.71 96.3031 247.87C95.9698 248.023 95.6265 248.1 95.2731 248.1C94.9198 248.1 94.6065 248.03 94.3331 247.89C94.0598 247.743 93.8431 247.547 93.6831 247.3C93.5298 247.047 93.4531 246.763 93.4531 246.45ZM96.7131 246.72C96.8798 246.56 96.9631 246.407 96.9631 246.26V245.73C96.6165 245.59 96.2665 245.52 95.9131 245.52C95.5598 245.52 95.2731 245.597 95.0531 245.75C94.8331 245.897 94.7231 246.093 94.7231 246.34C94.7231 246.54 94.8031 246.72 94.9631 246.88C95.1231 247.04 95.3531 247.12 95.6531 247.12C95.8531 247.12 96.0465 247.083 96.2331 247.01C96.4265 246.937 96.5865 246.84 96.7131 246.72ZM102.675 243.92C102.269 243.92 101.905 244 101.585 244.16C101.265 244.313 101.035 244.537 100.895 244.83V248H99.5553V242.76H100.785V243.88C100.965 243.52 101.199 243.237 101.485 243.03C101.779 242.823 102.085 242.71 102.405 242.69C102.545 242.69 102.635 242.693 102.675 242.7V243.92ZM106.563 247.73C106.383 247.81 106.159 247.89 105.893 247.97C105.633 248.05 105.363 248.09 105.083 248.09C104.836 248.09 104.609 248.047 104.403 247.96C104.196 247.873 104.029 247.737 103.903 247.55C103.783 247.357 103.723 247.107 103.723 246.8V243.79H103.033V242.76H103.723V241.06H105.063V242.76H106.163V243.79H105.063V246.35C105.063 246.53 105.109 246.66 105.203 246.74C105.303 246.82 105.423 246.86 105.563 246.86C105.703 246.86 105.839 246.837 105.973 246.79C106.106 246.743 106.213 246.703 106.293 246.67L106.563 247.73Z" fill="white"/>
</g>
</g>
<path d="M158.794 75.51H161.454L166.413 89H163.715L162.461 85.637H157.749L156.514 89H153.816L158.794 75.51ZM161.986 83.794L160.124 78.227L158.186 83.794H161.986ZM179.291 79.044H181.704L177.543 89H175.415L173.743 84.725L172.109 89H169.962L165.82 79.044H168.214L171.178 86.568L172.337 83.319L170.608 79.063H172.717L173.743 82.103L174.788 79.063H176.897L175.168 83.319L176.346 86.568L179.291 79.044ZM181.954 86.055C181.954 85.409 182.131 84.8453 182.486 84.364C182.853 83.87 183.36 83.49 184.006 83.224C184.652 82.958 185.393 82.825 186.229 82.825C186.647 82.825 187.071 82.863 187.502 82.939C187.933 83.0023 188.306 83.0973 188.623 83.224V82.692C188.623 82.0587 188.433 81.571 188.053 81.229C187.686 80.887 187.135 80.716 186.4 80.716C185.855 80.716 185.336 80.811 184.842 81.001C184.348 81.191 183.829 81.4697 183.284 81.837L182.467 80.165C183.126 79.7343 183.797 79.4113 184.481 79.196C185.178 78.9807 185.906 78.873 186.666 78.873C188.085 78.873 189.187 79.2277 189.972 79.937C190.77 80.6463 191.169 81.6597 191.169 82.977V86.15C191.169 86.4287 191.213 86.625 191.302 86.739C191.391 86.8403 191.549 86.9037 191.777 86.929V89C191.549 89.0507 191.34 89.0823 191.15 89.095C190.973 89.1203 190.821 89.133 190.694 89.133C190.187 89.133 189.801 89.019 189.535 88.791C189.269 88.563 189.111 88.2843 189.06 87.955L189.003 87.442C188.56 88.012 188.015 88.449 187.369 88.753C186.736 89.0443 186.083 89.19 185.412 89.19C184.741 89.19 184.145 89.057 183.626 88.791C183.107 88.5123 182.695 88.1387 182.391 87.67C182.1 87.1887 181.954 86.6503 181.954 86.055ZM188.148 86.568C188.465 86.264 188.623 85.9727 188.623 85.694V84.687C187.964 84.421 187.299 84.288 186.628 84.288C185.957 84.288 185.412 84.4337 184.994 84.725C184.576 85.0037 184.367 85.3773 184.367 85.846C184.367 86.226 184.519 86.568 184.823 86.872C185.127 87.176 185.564 87.328 186.134 87.328C186.514 87.328 186.881 87.2583 187.236 87.119C187.603 86.9797 187.907 86.796 188.148 86.568ZM199.476 81.248C198.703 81.248 198.013 81.4 197.405 81.704C196.797 81.9953 196.36 82.4197 196.094 82.977V89H193.548V79.044H195.885V81.172C196.227 80.488 196.67 79.9497 197.215 79.557C197.772 79.1643 198.355 78.949 198.963 78.911C199.229 78.911 199.4 78.9173 199.476 78.93V81.248ZM200.195 84.022C200.195 83.072 200.385 82.2043 200.765 81.419C201.145 80.6337 201.671 80.013 202.342 79.557C203.013 79.101 203.78 78.873 204.641 78.873C205.376 78.873 206.034 79.0567 206.617 79.424C207.212 79.7787 207.675 80.2347 208.004 80.792V75.13H210.55V86.15C210.55 86.4287 210.594 86.625 210.683 86.739C210.772 86.8403 210.924 86.9037 211.139 86.929V89C210.683 89.0887 210.322 89.133 210.056 89.133C209.6 89.133 209.22 89.019 208.916 88.791C208.625 88.563 208.46 88.2653 208.422 87.898L208.384 87.271C208.017 87.8917 207.516 88.3667 206.883 88.696C206.262 89.0253 205.61 89.19 204.926 89.19C204.001 89.19 203.184 88.962 202.475 88.506C201.766 88.0373 201.208 87.4167 200.803 86.644C200.398 85.8587 200.195 84.9847 200.195 84.022ZM208.004 85.352V82.977C207.801 82.4197 207.453 81.9573 206.959 81.59C206.465 81.2227 205.958 81.039 205.439 81.039C204.92 81.039 204.464 81.1847 204.071 81.476C203.678 81.7547 203.374 82.1283 203.159 82.597C202.944 83.053 202.836 83.547 202.836 84.079C202.836 84.6237 202.956 85.124 203.197 85.58C203.438 86.0233 203.761 86.378 204.166 86.644C204.584 86.8973 205.059 87.024 205.591 87.024C206.072 87.024 206.547 86.8657 207.016 86.549C207.497 86.2323 207.827 85.8333 208.004 85.352ZM216.716 89.19C215.867 89.19 215.057 89.0507 214.284 88.772C213.511 88.4933 212.846 88.0817 212.289 87.537L213.201 85.884C213.796 86.3653 214.379 86.72 214.949 86.948C215.519 87.176 216.076 87.29 216.621 87.29C217.115 87.29 217.508 87.2013 217.799 87.024C218.103 86.8467 218.255 86.5807 218.255 86.226C218.255 85.8587 218.071 85.6117 217.704 85.485C217.337 85.3457 216.824 85.1747 216.165 84.972C215.43 84.744 214.816 84.5097 214.322 84.269C213.828 84.0283 213.454 83.737 213.201 83.395C212.96 83.053 212.84 82.6097 212.84 82.065C212.84 81.0897 213.207 80.3107 213.942 79.728C214.677 79.1453 215.652 78.854 216.868 78.854C217.577 78.854 218.249 78.968 218.882 79.196C219.515 79.4113 220.092 79.766 220.611 80.26L219.585 81.875C218.61 81.115 217.666 80.735 216.754 80.735C216.349 80.735 215.988 80.811 215.671 80.963C215.367 81.115 215.215 81.381 215.215 81.761C215.215 82.1157 215.361 82.369 215.652 82.521C215.956 82.673 216.412 82.8377 217.02 83.015C217.805 83.2557 218.47 83.49 219.015 83.718C219.572 83.946 219.99 84.2373 220.269 84.592C220.56 84.9467 220.706 85.428 220.706 86.036C220.706 87.024 220.345 87.7967 219.623 88.354C218.901 88.9113 217.932 89.19 216.716 89.19Z" fill="white"/>
<path d="M81.2944 117.12C80.7264 117.12 80.2304 116.968 79.8064 116.664C79.3824 116.36 79.0504 115.964 78.8104 115.476C78.5784 114.98 78.4624 114.448 78.4624 113.88C78.4624 113.44 78.5384 113.028 78.6904 112.644C78.8424 112.252 79.0504 111.908 79.3144 111.612C79.5864 111.308 79.9024 111.072 80.2624 110.904C80.6224 110.728 81.0144 110.64 81.4384 110.64C81.9264 110.64 82.3744 110.768 82.7824 111.024C83.1984 111.272 83.5224 111.588 83.7544 111.972V110.748H84.4864V119.556H83.6704V115.704C83.0544 116.648 82.2624 117.12 81.2944 117.12ZM81.5464 116.4C82.0344 116.4 82.4544 116.256 82.8064 115.968C83.1664 115.672 83.4544 115.324 83.6704 114.924V112.992C83.6304 112.704 83.4984 112.436 83.2744 112.188C83.0584 111.94 82.7984 111.74 82.4944 111.588C82.1904 111.436 81.8904 111.36 81.5944 111.36C81.1464 111.36 80.7464 111.484 80.3944 111.732C80.0504 111.972 79.7784 112.288 79.5784 112.68C79.3864 113.064 79.2904 113.468 79.2904 113.892C79.2904 114.348 79.3864 114.768 79.5784 115.152C79.7704 115.528 80.0344 115.832 80.3704 116.064C80.7144 116.288 81.1064 116.4 81.5464 116.4ZM86.2287 114.42V110.748H87.0447V114.276C87.0447 115.692 87.5287 116.4 88.4967 116.4C88.9767 116.4 89.4247 116.244 89.8407 115.932C90.2647 115.62 90.5687 115.204 90.7527 114.684V110.748H91.5687V116.016C91.5687 116.232 91.6647 116.344 91.8567 116.352V117C91.7607 117.016 91.6847 117.024 91.6287 117.024C91.5807 117.024 91.5287 117.024 91.4727 117.024C91.3047 117.008 91.1607 116.944 91.0407 116.832C90.9287 116.72 90.8727 116.584 90.8727 116.424L90.8487 115.584C90.5767 116.072 90.2047 116.452 89.7327 116.724C89.2687 116.988 88.7647 117.12 88.2207 117.12C86.8927 117.12 86.2287 116.22 86.2287 114.42ZM93.4137 109.44V108.24H94.2297V109.44H93.4137ZM93.4137 117V110.748H94.2297V117H93.4137ZM99.027 116.7C98.931 116.74 98.755 116.812 98.499 116.916C98.243 117.02 97.947 117.072 97.611 117.072C97.259 117.072 96.951 116.972 96.687 116.772C96.423 116.572 96.291 116.272 96.291 115.872V111.396H95.427V110.748H96.291V108.636H97.107V110.748H98.547V111.396H97.107V115.644C97.123 115.876 97.203 116.048 97.347 116.16C97.499 116.264 97.671 116.316 97.863 116.316C98.087 116.316 98.287 116.28 98.463 116.208C98.647 116.128 98.763 116.072 98.811 116.04L99.027 116.7ZM102.641 117.12C102.041 117.12 101.505 116.972 101.033 116.676C100.561 116.38 100.189 115.984 99.917 115.488C99.645 114.992 99.509 114.448 99.509 113.856C99.509 113.272 99.641 112.736 99.905 112.248C100.177 111.76 100.549 111.372 101.021 111.084C101.493 110.788 102.029 110.64 102.629 110.64C103.245 110.64 103.785 110.788 104.249 111.084C104.713 111.38 105.073 111.772 105.329 112.26C105.593 112.74 105.725 113.268 105.725 113.844C105.725 113.972 105.721 114.08 105.713 114.168H100.361C100.401 114.616 100.529 115.016 100.745 115.368C100.961 115.712 101.237 115.988 101.573 116.196C101.909 116.396 102.277 116.496 102.677 116.496C103.085 116.496 103.469 116.392 103.829 116.184C104.189 115.976 104.445 115.704 104.597 115.368L105.305 115.56C105.177 115.864 104.977 116.136 104.705 116.376C104.441 116.608 104.133 116.792 103.781 116.928C103.429 117.056 103.049 117.12 102.641 117.12ZM100.337 113.58H104.957C104.925 113.132 104.801 112.736 104.585 112.392C104.369 112.04 104.093 111.768 103.757 111.576C103.421 111.376 103.049 111.276 102.641 111.276C102.233 111.276 101.861 111.376 101.525 111.576C101.189 111.768 100.913 112.04 100.697 112.392C100.489 112.736 100.369 113.132 100.337 113.58ZM112.095 117.12C111.583 117.12 111.107 117.036 110.667 116.868C110.235 116.692 109.855 116.436 109.527 116.1L109.863 115.524C110.215 115.852 110.567 116.092 110.919 116.244C111.279 116.388 111.659 116.46 112.059 116.46C112.539 116.46 112.931 116.364 113.235 116.172C113.547 115.972 113.703 115.688 113.703 115.32C113.703 115.072 113.627 114.884 113.475 114.756C113.331 114.62 113.119 114.512 112.839 114.432C112.567 114.352 112.239 114.26 111.855 114.156C111.423 114.036 111.059 113.912 110.763 113.784C110.475 113.648 110.255 113.48 110.103 113.28C109.959 113.072 109.887 112.804 109.887 112.476C109.887 112.076 109.987 111.74 110.187 111.468C110.395 111.196 110.675 110.992 111.027 110.856C111.387 110.712 111.787 110.64 112.227 110.64C112.707 110.64 113.131 110.716 113.499 110.868C113.867 111.02 114.167 111.232 114.399 111.504L114.003 112.056C113.787 111.8 113.519 111.612 113.199 111.492C112.887 111.364 112.547 111.3 112.179 111.3C111.923 111.3 111.679 111.336 111.447 111.408C111.215 111.472 111.023 111.584 110.871 111.744C110.727 111.896 110.655 112.108 110.655 112.38C110.655 112.716 110.779 112.948 111.027 113.076C111.275 113.204 111.651 113.34 112.155 113.484C112.627 113.612 113.039 113.74 113.391 113.868C113.743 113.996 114.015 114.168 114.207 114.384C114.399 114.592 114.495 114.884 114.495 115.26C114.495 115.844 114.275 116.3 113.835 116.628C113.395 116.956 112.815 117.12 112.095 117.12ZM125.143 117H124.327V113.508C124.327 112.788 124.211 112.256 123.979 111.912C123.747 111.56 123.403 111.384 122.947 111.384C122.467 111.384 122.043 111.552 121.675 111.888C121.307 112.224 121.047 112.656 120.895 113.184V117H120.079V113.508C120.079 112.772 119.963 112.236 119.731 111.9C119.507 111.556 119.167 111.384 118.711 111.384C118.239 111.384 117.815 111.548 117.439 111.876C117.071 112.204 116.811 112.636 116.659 113.172V117H115.843V110.748H116.587V112.164C116.843 111.684 117.179 111.312 117.595 111.048C118.011 110.776 118.471 110.64 118.975 110.64C119.495 110.64 119.915 110.792 120.235 111.096C120.555 111.392 120.751 111.776 120.823 112.248C121.399 111.176 122.203 110.64 123.235 110.64C123.939 110.64 124.431 110.888 124.711 111.384C124.999 111.872 125.143 112.524 125.143 113.34V117ZM129.535 117.12C128.935 117.12 128.399 116.972 127.927 116.676C127.463 116.38 127.099 115.988 126.835 115.5C126.571 115.004 126.439 114.468 126.439 113.892C126.439 113.308 126.571 112.772 126.835 112.284C127.107 111.788 127.475 111.392 127.939 111.096C128.411 110.792 128.943 110.64 129.535 110.64C130.135 110.64 130.667 110.792 131.131 111.096C131.603 111.392 131.971 111.788 132.235 112.284C132.507 112.772 132.643 113.308 132.643 113.892C132.643 114.468 132.511 115.004 132.247 115.5C131.983 115.988 131.615 116.38 131.143 116.676C130.679 116.972 130.143 117.12 129.535 117.12ZM127.267 113.904C127.267 114.368 127.367 114.792 127.567 115.176C127.775 115.552 128.051 115.852 128.395 116.076C128.739 116.292 129.119 116.4 129.535 116.4C129.951 116.4 130.331 116.288 130.675 116.064C131.019 115.84 131.295 115.536 131.503 115.152C131.711 114.768 131.815 114.344 131.815 113.88C131.815 113.416 131.711 112.992 131.503 112.608C131.295 112.224 131.019 111.92 130.675 111.696C130.331 111.472 129.951 111.36 129.535 111.36C129.127 111.36 128.751 111.476 128.407 111.708C128.063 111.932 127.787 112.236 127.579 112.62C127.371 113.004 127.267 113.432 127.267 113.904ZM138.471 117L136.155 113.796L134.823 115.044V117H134.007V108.24H134.823V114.168L138.363 110.76H139.263L136.707 113.316L139.359 117H138.471ZM140.371 109.44V108.24H141.187V109.44H140.371ZM140.371 117V110.748H141.187V117H140.371ZM148.24 117H147.424V113.508C147.424 112.772 147.312 112.236 147.088 111.9C146.872 111.556 146.536 111.384 146.08 111.384C145.76 111.384 145.444 111.464 145.132 111.624C144.82 111.776 144.544 111.988 144.304 112.26C144.072 112.524 143.904 112.828 143.8 113.172V117H142.984V110.748H143.728V112.164C143.976 111.708 144.34 111.34 144.82 111.06C145.3 110.78 145.82 110.64 146.38 110.64C146.844 110.64 147.212 110.752 147.484 110.976C147.756 111.192 147.948 111.504 148.06 111.912C148.18 112.312 148.24 112.788 148.24 113.34V117ZM152.488 117.084C152.056 117.084 151.66 116.996 151.3 116.82C150.948 116.644 150.64 116.408 150.376 116.112C150.12 115.808 149.92 115.464 149.776 115.08C149.632 114.696 149.56 114.3 149.56 113.892C149.56 113.308 149.684 112.772 149.932 112.284C150.18 111.788 150.52 111.392 150.952 111.096C151.392 110.792 151.896 110.64 152.464 110.64C153 110.64 153.464 110.776 153.856 111.048C154.256 111.32 154.592 111.656 154.864 112.056V110.748H155.596V117.024C155.596 117.608 155.456 118.096 155.176 118.488C154.896 118.88 154.524 119.176 154.06 119.376C153.596 119.576 153.088 119.676 152.536 119.676C151.816 119.676 151.236 119.548 150.796 119.292C150.364 119.036 150.008 118.692 149.728 118.26L150.232 117.864C150.48 118.256 150.808 118.548 151.216 118.74C151.632 118.932 152.072 119.028 152.536 119.028C152.944 119.028 153.316 118.952 153.652 118.8C153.996 118.656 154.268 118.436 154.468 118.14C154.676 117.844 154.78 117.472 154.78 117.024V115.788C154.54 116.18 154.212 116.496 153.796 116.736C153.38 116.968 152.944 117.084 152.488 117.084ZM152.716 116.4C153.044 116.4 153.356 116.324 153.652 116.172C153.948 116.02 154.196 115.828 154.396 115.596C154.604 115.356 154.732 115.108 154.78 114.852V112.92C154.66 112.616 154.488 112.348 154.264 112.116C154.04 111.876 153.784 111.692 153.496 111.564C153.208 111.428 152.916 111.36 152.62 111.36C152.156 111.36 151.756 111.488 151.42 111.744C151.092 111.992 150.836 112.312 150.652 112.704C150.476 113.088 150.388 113.488 150.388 113.904C150.388 114.352 150.492 114.768 150.7 115.152C150.908 115.528 151.188 115.832 151.54 116.064C151.892 116.288 152.284 116.4 152.716 116.4ZM160.457 109.44V108.24H161.273V109.44H160.457ZM160.457 117V110.748H161.273V117H160.457ZM165.122 117.12C164.61 117.12 164.134 117.036 163.694 116.868C163.262 116.692 162.882 116.436 162.554 116.1L162.89 115.524C163.242 115.852 163.594 116.092 163.946 116.244C164.306 116.388 164.686 116.46 165.086 116.46C165.566 116.46 165.958 116.364 166.262 116.172C166.574 115.972 166.73 115.688 166.73 115.32C166.73 115.072 166.654 114.884 166.502 114.756C166.358 114.62 166.146 114.512 165.866 114.432C165.594 114.352 165.266 114.26 164.882 114.156C164.45 114.036 164.086 113.912 163.79 113.784C163.502 113.648 163.282 113.48 163.13 113.28C162.986 113.072 162.914 112.804 162.914 112.476C162.914 112.076 163.014 111.74 163.214 111.468C163.422 111.196 163.702 110.992 164.054 110.856C164.414 110.712 164.814 110.64 165.254 110.64C165.734 110.64 166.158 110.716 166.526 110.868C166.894 111.02 167.194 111.232 167.426 111.504L167.03 112.056C166.814 111.8 166.546 111.612 166.226 111.492C165.914 111.364 165.574 111.3 165.206 111.3C164.95 111.3 164.706 111.336 164.474 111.408C164.242 111.472 164.05 111.584 163.898 111.744C163.754 111.896 163.682 112.108 163.682 112.38C163.682 112.716 163.806 112.948 164.054 113.076C164.302 113.204 164.678 113.34 165.182 113.484C165.654 113.612 166.066 113.74 166.418 113.868C166.77 113.996 167.042 114.168 167.234 114.384C167.426 114.592 167.522 114.884 167.522 115.26C167.522 115.844 167.302 116.3 166.862 116.628C166.422 116.956 165.842 117.12 165.122 117.12ZM177.185 117H176.369V113.508C176.369 112.092 175.889 111.384 174.929 111.384C174.617 111.384 174.313 111.464 174.017 111.624C173.721 111.776 173.457 111.988 173.225 112.26C173.001 112.524 172.841 112.828 172.745 113.172V117H171.929V108.24H172.745V112.164C172.993 111.7 173.337 111.332 173.777 111.06C174.225 110.78 174.701 110.64 175.205 110.64C175.685 110.64 176.069 110.756 176.357 110.988C176.645 111.212 176.853 111.528 176.981 111.936C177.117 112.336 177.185 112.804 177.185 113.34V117ZM178.421 115.2C178.421 114.816 178.533 114.484 178.757 114.204C178.981 113.916 179.289 113.692 179.681 113.532C180.081 113.372 180.541 113.292 181.061 113.292C181.365 113.292 181.681 113.32 182.009 113.376C182.337 113.424 182.629 113.492 182.885 113.58V113.052C182.885 112.524 182.729 112.104 182.417 111.792C182.105 111.48 181.673 111.324 181.121 111.324C180.793 111.324 180.465 111.388 180.137 111.516C179.809 111.636 179.469 111.816 179.117 112.056L178.805 111.48C179.213 111.2 179.613 110.992 180.005 110.856C180.397 110.712 180.797 110.64 181.205 110.64C181.973 110.64 182.581 110.86 183.029 111.3C183.477 111.74 183.701 112.348 183.701 113.124V116.016C183.701 116.232 183.801 116.344 184.001 116.352V117C183.825 117.024 183.701 117.032 183.629 117.024C183.429 117.016 183.277 116.952 183.173 116.832C183.069 116.712 183.013 116.584 183.005 116.448L182.993 115.992C182.713 116.352 182.349 116.632 181.901 116.832C181.453 117.024 180.997 117.12 180.533 117.12C180.125 117.12 179.761 117.036 179.441 116.868C179.121 116.692 178.869 116.46 178.685 116.172C178.509 115.876 178.421 115.552 178.421 115.2ZM182.609 115.68C182.793 115.464 182.885 115.264 182.885 115.08V114.168C182.333 113.952 181.757 113.844 181.157 113.844C180.573 113.844 180.101 113.96 179.741 114.192C179.381 114.424 179.201 114.74 179.201 115.14C179.201 115.484 179.333 115.796 179.597 116.076C179.869 116.356 180.245 116.496 180.725 116.496C181.117 116.496 181.481 116.42 181.817 116.268C182.161 116.116 182.425 115.92 182.609 115.68ZM188.584 111.468C188.04 111.484 187.56 111.636 187.144 111.924C186.736 112.212 186.448 112.608 186.28 113.112V117H185.464V110.748H186.232V112.248C186.448 111.808 186.732 111.452 187.084 111.18C187.444 110.908 187.824 110.756 188.224 110.724C188.304 110.716 188.372 110.712 188.428 110.712C188.484 110.712 188.536 110.716 188.584 110.724V111.468ZM189.087 113.892C189.087 113.3 189.207 112.76 189.447 112.272C189.695 111.776 190.035 111.38 190.467 111.084C190.899 110.788 191.391 110.64 191.943 110.64C192.463 110.64 192.927 110.78 193.335 111.06C193.751 111.332 194.075 111.664 194.307 112.056V108.24H195.123V116.016C195.123 116.232 195.219 116.344 195.411 116.352V117C195.251 117.024 195.127 117.032 195.039 117.024C194.863 117.016 194.711 116.952 194.583 116.832C194.463 116.704 194.403 116.56 194.403 116.4V115.788C194.155 116.196 193.819 116.52 193.395 116.76C192.971 117 192.531 117.12 192.075 117.12C191.643 117.12 191.243 117.032 190.875 116.856C190.507 116.68 190.187 116.44 189.915 116.136C189.651 115.832 189.447 115.488 189.303 115.104C189.159 114.712 189.087 114.308 189.087 113.892ZM194.307 114.852V112.92C194.203 112.632 194.035 112.372 193.803 112.14C193.571 111.9 193.307 111.712 193.011 111.576C192.723 111.432 192.435 111.36 192.147 111.36C191.699 111.36 191.307 111.484 190.971 111.732C190.643 111.972 190.387 112.288 190.203 112.68C190.019 113.064 189.927 113.468 189.927 113.892C189.927 114.34 190.027 114.756 190.227 115.14C190.435 115.524 190.715 115.832 191.067 116.064C191.419 116.288 191.815 116.4 192.255 116.4C192.527 116.4 192.811 116.332 193.107 116.196C193.411 116.052 193.675 115.864 193.899 115.632C194.131 115.4 194.267 115.14 194.307 114.852ZM200.063 118.92C200.175 118.928 200.283 118.932 200.387 118.932C200.491 118.94 200.567 118.936 200.615 118.92C200.711 118.912 200.799 118.856 200.879 118.752C200.967 118.656 201.071 118.472 201.191 118.2C201.319 117.936 201.491 117.536 201.707 117L198.983 110.748H199.847L202.139 116.16L204.251 110.748H205.067L201.827 118.812C201.739 119.044 201.591 119.244 201.383 119.412C201.175 119.58 200.899 119.668 200.555 119.676C200.483 119.684 200.407 119.684 200.327 119.676C200.247 119.676 200.159 119.668 200.063 119.652V118.92ZM208.648 117.12C208.048 117.12 207.512 116.972 207.04 116.676C206.576 116.38 206.212 115.988 205.948 115.5C205.684 115.004 205.552 114.468 205.552 113.892C205.552 113.308 205.684 112.772 205.948 112.284C206.22 111.788 206.588 111.392 207.052 111.096C207.524 110.792 208.056 110.64 208.648 110.64C209.248 110.64 209.78 110.792 210.244 111.096C210.716 111.392 211.084 111.788 211.348 112.284C211.62 112.772 211.756 113.308 211.756 113.892C211.756 114.468 211.624 115.004 211.36 115.5C211.096 115.988 210.728 116.38 210.256 116.676C209.792 116.972 209.256 117.12 208.648 117.12ZM206.38 113.904C206.38 114.368 206.48 114.792 206.68 115.176C206.888 115.552 207.164 115.852 207.508 116.076C207.852 116.292 208.232 116.4 208.648 116.4C209.064 116.4 209.444 116.288 209.788 116.064C210.132 115.84 210.408 115.536 210.616 115.152C210.824 114.768 210.928 114.344 210.928 113.88C210.928 113.416 210.824 112.992 210.616 112.608C210.408 112.224 210.132 111.92 209.788 111.696C209.444 111.472 209.064 111.36 208.648 111.36C208.24 111.36 207.864 111.476 207.52 111.708C207.176 111.932 206.9 112.236 206.692 112.62C206.484 113.004 206.38 113.432 206.38 113.904ZM213.061 114.42V110.748H213.877V114.276C213.877 115.692 214.361 116.4 215.329 116.4C215.809 116.4 216.257 116.244 216.673 115.932C217.097 115.62 217.401 115.204 217.585 114.684V110.748H218.401V116.016C218.401 116.232 218.497 116.344 218.689 116.352V117C218.593 117.016 218.517 117.024 218.461 117.024C218.413 117.024 218.361 117.024 218.305 117.024C218.137 117.008 217.993 116.944 217.873 116.832C217.761 116.72 217.705 116.584 217.705 116.424L217.681 115.584C217.409 116.072 217.037 116.452 216.565 116.724C216.101 116.988 215.597 117.12 215.053 117.12C213.725 117.12 213.061 116.22 213.061 114.42ZM222.8 115.2C222.8 114.816 222.912 114.484 223.136 114.204C223.36 113.916 223.668 113.692 224.06 113.532C224.46 113.372 224.92 113.292 225.44 113.292C225.744 113.292 226.06 113.32 226.388 113.376C226.716 113.424 227.008 113.492 227.264 113.58V113.052C227.264 112.524 227.108 112.104 226.796 111.792C226.484 111.48 226.052 111.324 225.5 111.324C225.172 111.324 224.844 111.388 224.516 111.516C224.188 111.636 223.848 111.816 223.496 112.056L223.184 111.48C223.592 111.2 223.992 110.992 224.384 110.856C224.776 110.712 225.176 110.64 225.584 110.64C226.352 110.64 226.96 110.86 227.408 111.3C227.856 111.74 228.08 112.348 228.08 113.124V116.016C228.08 116.232 228.18 116.344 228.38 116.352V117C228.204 117.024 228.08 117.032 228.008 117.024C227.808 117.016 227.656 116.952 227.552 116.832C227.448 116.712 227.392 116.584 227.384 116.448L227.372 115.992C227.092 116.352 226.728 116.632 226.28 116.832C225.832 117.024 225.376 117.12 224.912 117.12C224.504 117.12 224.14 117.036 223.82 116.868C223.5 116.692 223.248 116.46 223.064 116.172C222.888 115.876 222.8 115.552 222.8 115.2ZM226.988 115.68C227.172 115.464 227.264 115.264 227.264 115.08V114.168C226.712 113.952 226.136 113.844 225.536 113.844C224.952 113.844 224.48 113.96 224.12 114.192C223.76 114.424 223.58 114.74 223.58 115.14C223.58 115.484 223.712 115.796 223.976 116.076C224.248 116.356 224.624 116.496 225.104 116.496C225.496 116.496 225.86 116.42 226.196 116.268C226.54 116.116 226.804 115.92 226.988 115.68ZM232.963 111.468C232.419 111.484 231.939 111.636 231.523 111.924C231.115 112.212 230.827 112.608 230.659 113.112V117H229.843V110.748H230.611V112.248C230.827 111.808 231.111 111.452 231.463 111.18C231.823 110.908 232.203 110.756 232.603 110.724C232.683 110.716 232.751 110.712 232.807 110.712C232.863 110.712 232.915 110.716 232.963 110.724V111.468ZM236.563 117.12C235.963 117.12 235.427 116.972 234.955 116.676C234.483 116.38 234.111 115.984 233.839 115.488C233.567 114.992 233.431 114.448 233.431 113.856C233.431 113.272 233.563 112.736 233.827 112.248C234.099 111.76 234.471 111.372 234.943 111.084C235.415 110.788 235.951 110.64 236.551 110.64C237.167 110.64 237.707 110.788 238.171 111.084C238.635 111.38 238.995 111.772 239.251 112.26C239.515 112.74 239.647 113.268 239.647 113.844C239.647 113.972 239.643 114.08 239.635 114.168H234.283C234.323 114.616 234.451 115.016 234.667 115.368C234.883 115.712 235.159 115.988 235.495 116.196C235.831 116.396 236.199 116.496 236.599 116.496C237.007 116.496 237.391 116.392 237.751 116.184C238.111 115.976 238.367 115.704 238.519 115.368L239.227 115.56C239.099 115.864 238.899 116.136 238.627 116.376C238.363 116.608 238.055 116.792 237.703 116.928C237.351 117.056 236.971 117.12 236.563 117.12ZM234.259 113.58H238.879C238.847 113.132 238.723 112.736 238.507 112.392C238.291 112.04 238.015 111.768 237.679 111.576C237.343 111.376 236.971 111.276 236.563 111.276C236.155 111.276 235.783 111.376 235.447 111.576C235.111 111.768 234.835 112.04 234.619 112.392C234.411 112.736 234.291 113.132 234.259 113.58ZM243.46 115.2C243.46 114.816 243.572 114.484 243.796 114.204C244.02 113.916 244.328 113.692 244.72 113.532C245.12 113.372 245.58 113.292 246.1 113.292C246.404 113.292 246.72 113.32 247.048 113.376C247.376 113.424 247.668 113.492 247.924 113.58V113.052C247.924 112.524 247.768 112.104 247.456 111.792C247.144 111.48 246.712 111.324 246.16 111.324C245.832 111.324 245.504 111.388 245.176 111.516C244.848 111.636 244.508 111.816 244.156 112.056L243.844 111.48C244.252 111.2 244.652 110.992 245.044 110.856C245.436 110.712 245.836 110.64 246.244 110.64C247.012 110.64 247.62 110.86 248.068 111.3C248.516 111.74 248.74 112.348 248.74 113.124V116.016C248.74 116.232 248.84 116.344 249.04 116.352V117C248.864 117.024 248.74 117.032 248.668 117.024C248.468 117.016 248.316 116.952 248.212 116.832C248.108 116.712 248.052 116.584 248.044 116.448L248.032 115.992C247.752 116.352 247.388 116.632 246.94 116.832C246.492 117.024 246.036 117.12 245.572 117.12C245.164 117.12 244.8 117.036 244.48 116.868C244.16 116.692 243.908 116.46 243.724 116.172C243.548 115.876 243.46 115.552 243.46 115.2ZM247.648 115.68C247.832 115.464 247.924 115.264 247.924 115.08V114.168C247.372 113.952 246.796 113.844 246.196 113.844C245.612 113.844 245.14 113.96 244.78 114.192C244.42 114.424 244.24 114.74 244.24 115.14C244.24 115.484 244.372 115.796 244.636 116.076C244.908 116.356 245.284 116.496 245.764 116.496C246.156 116.496 246.52 116.42 246.856 116.268C247.2 116.116 247.464 115.92 247.648 115.68ZM258.188 110.748H258.992L256.304 117H255.596L254.288 113.892L252.992 117H252.284L249.596 110.748H250.388L252.668 116.16L253.82 113.34L252.764 110.76H253.496L254.288 112.788L255.092 110.76H255.812L254.768 113.34L255.92 116.16L258.188 110.748ZM262.567 117.12C261.967 117.12 261.431 116.972 260.959 116.676C260.487 116.38 260.115 115.984 259.843 115.488C259.571 114.992 259.435 114.448 259.435 113.856C259.435 113.272 259.567 112.736 259.831 112.248C260.103 111.76 260.475 111.372 260.947 111.084C261.419 110.788 261.955 110.64 262.555 110.64C263.171 110.64 263.711 110.788 264.175 111.084C264.639 111.38 264.999 111.772 265.255 112.26C265.519 112.74 265.651 113.268 265.651 113.844C265.651 113.972 265.647 114.08 265.639 114.168H260.287C260.327 114.616 260.455 115.016 260.671 115.368C260.887 115.712 261.163 115.988 261.499 116.196C261.835 116.396 262.203 116.496 262.603 116.496C263.011 116.496 263.395 116.392 263.755 116.184C264.115 115.976 264.371 115.704 264.523 115.368L265.231 115.56C265.103 115.864 264.903 116.136 264.631 116.376C264.367 116.608 264.059 116.792 263.707 116.928C263.355 117.056 262.975 117.12 262.567 117.12ZM260.263 113.58H264.883C264.851 113.132 264.727 112.736 264.511 112.392C264.295 112.04 264.019 111.768 263.683 111.576C263.347 111.376 262.975 111.276 262.567 111.276C262.159 111.276 261.787 111.376 261.451 111.576C261.115 111.768 260.839 112.04 260.623 112.392C260.415 112.736 260.295 113.132 260.263 113.58ZM268.962 117.12C268.45 117.12 267.974 117.036 267.534 116.868C267.102 116.692 266.722 116.436 266.394 116.1L266.73 115.524C267.082 115.852 267.434 116.092 267.786 116.244C268.146 116.388 268.526 116.46 268.926 116.46C269.406 116.46 269.798 116.364 270.102 116.172C270.414 115.972 270.57 115.688 270.57 115.32C270.57 115.072 270.494 114.884 270.342 114.756C270.198 114.62 269.986 114.512 269.706 114.432C269.434 114.352 269.106 114.26 268.722 114.156C268.29 114.036 267.926 113.912 267.63 113.784C267.342 113.648 267.122 113.48 266.97 113.28C266.826 113.072 266.754 112.804 266.754 112.476C266.754 112.076 266.854 111.74 267.054 111.468C267.262 111.196 267.542 110.992 267.894 110.856C268.254 110.712 268.654 110.64 269.094 110.64C269.574 110.64 269.998 110.716 270.366 110.868C270.734 111.02 271.034 111.232 271.266 111.504L270.87 112.056C270.654 111.8 270.386 111.612 270.066 111.492C269.754 111.364 269.414 111.3 269.046 111.3C268.79 111.3 268.546 111.336 268.314 111.408C268.082 111.472 267.89 111.584 267.738 111.744C267.594 111.896 267.522 112.108 267.522 112.38C267.522 112.716 267.646 112.948 267.894 113.076C268.142 113.204 268.518 113.34 269.022 113.484C269.494 113.612 269.906 113.74 270.258 113.868C270.61 113.996 270.882 114.168 271.074 114.384C271.266 114.592 271.362 114.884 271.362 115.26C271.362 115.844 271.142 116.3 270.702 116.628C270.262 116.956 269.682 117.12 268.962 117.12ZM275.375 117.12C274.775 117.12 274.239 116.972 273.767 116.676C273.303 116.38 272.939 115.988 272.675 115.5C272.411 115.004 272.279 114.468 272.279 113.892C272.279 113.308 272.411 112.772 272.675 112.284C272.947 111.788 273.315 111.392 273.779 111.096C274.251 110.792 274.783 110.64 275.375 110.64C275.975 110.64 276.507 110.792 276.971 111.096C277.443 111.392 277.811 111.788 278.075 112.284C278.347 112.772 278.483 113.308 278.483 113.892C278.483 114.468 278.351 115.004 278.087 115.5C277.823 115.988 277.455 116.38 276.983 116.676C276.519 116.972 275.983 117.12 275.375 117.12ZM273.107 113.904C273.107 114.368 273.207 114.792 273.407 115.176C273.615 115.552 273.891 115.852 274.235 116.076C274.579 116.292 274.959 116.4 275.375 116.4C275.791 116.4 276.171 116.288 276.515 116.064C276.859 115.84 277.135 115.536 277.343 115.152C277.551 114.768 277.655 114.344 277.655 113.88C277.655 113.416 277.551 112.992 277.343 112.608C277.135 112.224 276.859 111.92 276.515 111.696C276.171 111.472 275.791 111.36 275.375 111.36C274.967 111.36 274.591 111.476 274.247 111.708C273.903 111.932 273.627 112.236 273.419 112.62C273.211 113.004 273.107 113.432 273.107 113.904ZM289.147 117H288.331V113.508C288.331 112.788 288.215 112.256 287.983 111.912C287.751 111.56 287.407 111.384 286.951 111.384C286.471 111.384 286.047 111.552 285.679 111.888C285.311 112.224 285.051 112.656 284.899 113.184V117H284.083V113.508C284.083 112.772 283.967 112.236 283.735 111.9C283.511 111.556 283.171 111.384 282.715 111.384C282.243 111.384 281.819 111.548 281.443 111.876C281.075 112.204 280.815 112.636 280.663 113.172V117H279.847V110.748H280.591V112.164C280.847 111.684 281.183 111.312 281.599 111.048C282.015 110.776 282.475 110.64 282.979 110.64C283.499 110.64 283.919 110.792 284.239 111.096C284.559 111.392 284.755 111.776 284.827 112.248C285.403 111.176 286.207 110.64 287.239 110.64C287.943 110.64 288.435 110.888 288.715 111.384C289.003 111.872 289.147 112.524 289.147 113.34V117ZM293.575 117.12C292.975 117.12 292.439 116.972 291.967 116.676C291.495 116.38 291.123 115.984 290.851 115.488C290.579 114.992 290.443 114.448 290.443 113.856C290.443 113.272 290.575 112.736 290.839 112.248C291.111 111.76 291.483 111.372 291.955 111.084C292.427 110.788 292.963 110.64 293.563 110.64C294.179 110.64 294.719 110.788 295.183 111.084C295.647 111.38 296.007 111.772 296.263 112.26C296.527 112.74 296.659 113.268 296.659 113.844C296.659 113.972 296.655 114.08 296.647 114.168H291.295C291.335 114.616 291.463 115.016 291.679 115.368C291.895 115.712 292.171 115.988 292.507 116.196C292.843 116.396 293.211 116.496 293.611 116.496C294.019 116.496 294.403 116.392 294.763 116.184C295.123 115.976 295.379 115.704 295.531 115.368L296.239 115.56C296.111 115.864 295.911 116.136 295.639 116.376C295.375 116.608 295.067 116.792 294.715 116.928C294.363 117.056 293.983 117.12 293.575 117.12ZM291.271 113.58H295.891C295.859 113.132 295.735 112.736 295.519 112.392C295.303 112.04 295.027 111.768 294.691 111.576C294.355 111.376 293.983 111.276 293.575 111.276C293.167 111.276 292.795 111.376 292.459 111.576C292.123 111.768 291.847 112.04 291.631 112.392C291.423 112.736 291.303 113.132 291.271 113.58Z" fill="white"/>
<defs>
<filter id="filter0_d" x="238" y="258" width="89" height="90" filterUnits="userSpaceOnUse" color-interpolation-filters="sRGB">
<feFlood flood-opacity="0" result="BackgroundImageFix"/>
<feColorMatrix in="SourceAlpha" type="matrix" values="0 0 0 0 0 0 0 0 0 0 0 0 0 0 0 0 0 0 127 0"/>
<feOffset dy="18"/>
<feGaussianBlur stdDeviation="8.5"/>
<feColorMatrix type="matrix" values="0 0 0 0 0 0 0 0 0 0 0 0 0 0 0 0 0 0 0.5 0"/>
<feBlend mode="normal" in2="BackgroundImageFix" result="effect1_dropShadow"/>
<feBlend mode="normal" in="SourceGraphic" in2="effect1_dropShadow" result="shape"/>
</filter>
<filter id="filter1_d" x="144" y="258" width="89" height="90" filterUnits="userSpaceOnUse" color-interpolation-filters="sRGB">
<feFlood flood-opacity="0" result="BackgroundImageFix"/>
<feColorMatrix in="SourceAlpha" type="matrix" values="0 0 0 0 0 0 0 0 0 0 0 0 0 0 0 0 0 0 127 0"/>
<feOffset dy="18"/>
<feGaussianBlur stdDeviation="8.5"/>
<feColorMatrix type="matrix" values="0 0 0 0 0 0 0 0 0 0 0 0 0 0 0 0 0 0 0.5 0"/>
<feBlend mode="normal" in2="BackgroundImageFix" result="effect1_dropShadow"/>
<feBlend mode="normal" in="SourceGraphic" in2="effect1_dropShadow" result="shape"/>
</filter>
<filter id="filter2_d" x="48" y="256" width="93" height="94" filterUnits="userSpaceOnUse" color-interpolation-filters="sRGB">
<feFlood flood-opacity="0" result="BackgroundImageFix"/>
<feColorMatrix in="SourceAlpha" type="matrix" values="0 0 0 0 0 0 0 0 0 0 0 0 0 0 0 0 0 0 127 0"/>
<feOffset dy="18"/>
<feGaussianBlur stdDeviation="8.5"/>
<feColorMatrix type="matrix" values="0 0 0 0 0 0 0 0 0 0 0 0 0 0 0 0 0 0 0.5 0"/>
<feBlend mode="normal" in2="BackgroundImageFix" result="effect1_dropShadow"/>
<feBlend mode="normal" in="SourceGraphic" in2="effect1_dropShadow" result="shape"/>
</filter>
<filter id="filter3_d" x="263.841" y="238.9" width="38.307" height="17.39" filterUnits="userSpaceOnUse" color-interpolation-filters="sRGB">
<feFlood flood-opacity="0" result="BackgroundImageFix"/>
<feColorMatrix in="SourceAlpha" type="matrix" values="0 0 0 0 0 0 0 0 0 0 0 0 0 0 0 0 0 0 127 0"/>
<feOffset dy="2"/>
<feGaussianBlur stdDeviation="2"/>
<feColorMatrix type="matrix" values="0 0 0 0 0 0 0 0 0 0 0 0 0 0 0 0 0 0 0.5 0"/>
<feBlend mode="normal" in2="BackgroundImageFix" result="effect1_dropShadow"/>
<feBlend mode="normal" in="SourceGraphic" in2="effect1_dropShadow" result="shape"/>
</filter>
<filter id="filter4_d" x="164.824" y="238.7" width="47.3307" height="16.77" filterUnits="userSpaceOnUse" color-interpolation-filters="sRGB">
<feFlood flood-opacity="0" result="BackgroundImageFix"/>
<feColorMatrix in="SourceAlpha" type="matrix" values="0 0 0 0 0 0 0 0 0 0 0 0 0 0 0 0 0 0 127 0"/>
<feOffset dy="2"/>
<feGaussianBlur stdDeviation="2"/>
<feColorMatrix type="matrix" values="0 0 0 0 0 0 0 0 0 0 0 0 0 0 0 0 0 0 0.5 0"/>
<feBlend mode="normal" in2="BackgroundImageFix" result="effect1_dropShadow"/>
<feBlend mode="normal" in="SourceGraphic" in2="effect1_dropShadow" result="shape"/>
</filter>
<filter id="filter5_d" x="79.5696" y="238.85" width="30.9929" height="15.25" filterUnits="userSpaceOnUse" color-interpolation-filters="sRGB">
<feFlood flood-opacity="0" result="BackgroundImageFix"/>
<feColorMatrix in="SourceAlpha" type="matrix" values="0 0 0 0 0 0 0 0 0 0 0 0 0 0 0 0 0 0 127 0"/>
<feOffset dy="2"/>
<feGaussianBlur stdDeviation="2"/>
<feColorMatrix type="matrix" values="0 0 0 0 0 0 0 0 0 0 0 0 0 0 0 0 0 0 0.5 0"/>
<feBlend mode="normal" in2="BackgroundImageFix" result="effect1_dropShadow"/>
<feBlend mode="normal" in="SourceGraphic" in2="effect1_dropShadow" result="shape"/>
</filter>
<radialGradient id="paint0_radial" cx="0" cy="0" r="1" gradientUnits="userSpaceOnUse" gradientTransform="translate(187.125 318.885) scale(213.315 35.2516)">
<stop stop-color="white"/>
<stop offset="0.08" stop-color="#F6F6F6"/>
<stop offset="0.22" stop-color="#DEDEDE"/>
<stop offset="0.4" stop-color="#B7B7B7"/>
<stop offset="0.6" stop-color="#818181"/>
<stop offset="0.82" stop-color="#3C3C3C"/>
<stop offset="1"/>
</radialGradient>
<radialGradient id="paint1_radial" cx="0" cy="0" r="1" gradientUnits="userSpaceOnUse" gradientTransform="translate(187.125 316.594) scale(181.11 23.2977)">
<stop stop-color="white"/>
<stop offset="0.08" stop-color="#F6F6F6"/>
<stop offset="0.22" stop-color="#DEDEDE"/>
<stop offset="0.4" stop-color="#B7B7B7"/>
<stop offset="0.6" stop-color="#818181"/>
<stop offset="0.82" stop-color="#3C3C3C"/>
<stop offset="1"/>
</radialGradient>
<radialGradient id="paint2_radial" cx="0" cy="0" r="1" gradientUnits="userSpaceOnUse" gradientTransform="translate(187.5 183.502) scale(320.4 288.36)">
<stop stop-color="white"/>
<stop offset="0.08" stop-color="#F6F6F6"/>
<stop offset="0.22" stop-color="#DEDEDE"/>
<stop offset="0.4" stop-color="#B7B7B7"/>
<stop offset="0.6" stop-color="#818181"/>
<stop offset="0.82" stop-color="#3C3C3C"/>
<stop offset="1"/>
</radialGradient>
<linearGradient id="paint3_linear" x1="-0.50555" y1="104.376" x2="214.733" y2="274.954" gradientUnits="userSpaceOnUse">
<stop stop-color="white"/>
<stop offset="1"/>
</linearGradient>
<linearGradient id="paint4_linear" x1="226.388" y1="-92.1553" x2="21.0764" y2="35.8116" gradientUnits="userSpaceOnUse">
<stop stop-color="white"/>
<stop offset="1"/>
</linearGradient>
<linearGradient id="paint5_linear" x1="-51.5269" y1="130.213" x2="181.667" y2="256.4" gradientUnits="userSpaceOnUse">
<stop stop-color="white"/>
<stop offset="1"/>
</linearGradient>
<linearGradient id="paint6_linear" x1="290.56" y1="-115.224" x2="79.3037" y2="5.62619" gradientUnits="userSpaceOnUse">
<stop stop-color="white"/>
<stop offset="1"/>
</linearGradient>
<radialGradient id="paint7_radial" cx="0" cy="0" r="1" gradientUnits="userSpaceOnUse" gradientTransform="translate(187.5 225.24) scale(92.445)">
<stop stop-color="white"/>
<stop offset="1" stop-color="#AFAFAF"/>
</radialGradient>
<radialGradient id="paint8_radial" cx="0" cy="0" r="1" gradientUnits="userSpaceOnUse" gradientTransform="translate(178.617 144.754) rotate(45) scale(8.04)">
<stop stop-color="white"/>
<stop offset="0.08" stop-color="#F6F6F6"/>
<stop offset="0.22" stop-color="#DEDEDE"/>
<stop offset="0.4" stop-color="#B7B7B7"/>
<stop offset="0.6" stop-color="#818181"/>
<stop offset="0.82" stop-color="#3C3C3C"/>
<stop offset="1"/>
</radialGradient>
<radialGradient id="paint9_radial" cx="0" cy="0" r="1" gradientUnits="userSpaceOnUse" gradientTransform="translate(213.662 229.501) rotate(45) scale(5.325)">
<stop stop-color="white"/>
<stop offset="0.08" stop-color="#F6F6F6"/>
<stop offset="0.22" stop-color="#DEDEDE"/>
<stop offset="0.4" stop-color="#B7B7B7"/>
<stop offset="0.6" stop-color="#818181"/>
<stop offset="0.82" stop-color="#3C3C3C"/>
<stop offset="1"/>
</radialGradient>
<radialGradient id="paint10_radial" cx="0" cy="0" r="1" gradientUnits="userSpaceOnUse" gradientTransform="translate(256.708 237.938) rotate(45) scale(3.9225)">
<stop stop-color="white"/>
<stop offset="0.08" stop-color="#F6F6F6"/>
<stop offset="0.22" stop-color="#DEDEDE"/>
<stop offset="0.4" stop-color="#B7B7B7"/>
<stop offset="0.6" stop-color="#818181"/>
<stop offset="0.82" stop-color="#3C3C3C"/>
<stop offset="1"/>
</radialGradient>
<radialGradient id="paint11_radial" cx="0" cy="0" r="1" gradientUnits="userSpaceOnUse" gradientTransform="translate(114.723 227.432) rotate(45) scale(3.9225)">
<stop stop-color="white"/>
<stop offset="0.08" stop-color="#F6F6F6"/>
<stop offset="0.22" stop-color="#DEDEDE"/>
<stop offset="0.4" stop-color="#B7B7B7"/>
<stop offset="0.6" stop-color="#818181"/>
<stop offset="0.82" stop-color="#3C3C3C"/>
<stop offset="1"/>
</radialGradient>
<radialGradient id="paint12_radial" cx="0" cy="0" r="1" gradientUnits="userSpaceOnUse" gradientTransform="translate(155.421 217.515) rotate(45) scale(3.9225)">
<stop stop-color="white"/>
<stop offset="0.08" stop-color="#F6F6F6"/>
<stop offset="0.22" stop-color="#DEDEDE"/>
<stop offset="0.4" stop-color="#B7B7B7"/>
<stop offset="0.6" stop-color="#818181"/>
<stop offset="0.82" stop-color="#3C3C3C"/>
<stop offset="1"/>
</radialGradient>
<radialGradient id="paint13_radial" cx="0" cy="0" r="1" gradientUnits="userSpaceOnUse" gradientTransform="translate(246.643 178.297) rotate(45) scale(2.7375)">
<stop stop-color="white"/>
<stop offset="0.08" stop-color="#F6F6F6"/>
<stop offset="0.22" stop-color="#DEDEDE"/>
<stop offset="0.4" stop-color="#B7B7B7"/>
<stop offset="0.6" stop-color="#818181"/>
<stop offset="0.82" stop-color="#3C3C3C"/>
<stop offset="1"/>
</radialGradient>
<radialGradient id="paint14_radial" cx="0" cy="0" r="1" gradientUnits="userSpaceOnUse" gradientTransform="translate(133.306 276.53) rotate(45) scale(2.7375)">
<stop stop-color="white"/>
<stop offset="0.08" stop-color="#F6F6F6"/>
<stop offset="0.22" stop-color="#DEDEDE"/>
<stop offset="0.4" stop-color="#B7B7B7"/>
<stop offset="0.6" stop-color="#818181"/>
<stop offset="0.82" stop-color="#3C3C3C"/>
<stop offset="1"/>
</radialGradient>
<radialGradient id="paint15_radial" cx="0" cy="0" r="1" gradientUnits="userSpaceOnUse" gradientTransform="translate(143.95 179.814) rotate(45) scale(3.2175)">
<stop stop-color="white"/>
<stop offset="0.08" stop-color="#F6F6F6"/>
<stop offset="0.22" stop-color="#DEDEDE"/>
<stop offset="0.4" stop-color="#B7B7B7"/>
<stop offset="0.6" stop-color="#818181"/>
<stop offset="0.82" stop-color="#3C3C3C"/>
<stop offset="1"/>
</radialGradient>
<radialGradient id="paint16_radial" cx="0" cy="0" r="1" gradientUnits="userSpaceOnUse" gradientTransform="translate(231.056 269.678) rotate(45) scale(3.2175)">
<stop stop-color="white"/>
<stop offset="0.08" stop-color="#F6F6F6"/>
<stop offset="0.22" stop-color="#DEDEDE"/>
<stop offset="0.4" stop-color="#B7B7B7"/>
<stop offset="0.6" stop-color="#818181"/>
<stop offset="0.82" stop-color="#3C3C3C"/>
<stop offset="1"/>
</radialGradient>
<radialGradient id="paint17_radial" cx="0" cy="0" r="1" gradientUnits="userSpaceOnUse" gradientTransform="translate(172.291 258.759) rotate(45) scale(2.625)">
<stop stop-color="white"/>
<stop offset="0.08" stop-color="#F6F6F6"/>
<stop offset="0.22" stop-color="#DEDEDE"/>
<stop offset="0.4" stop-color="#B7B7B7"/>
<stop offset="0.6" stop-color="#818181"/>
<stop offset="0.82" stop-color="#3C3C3C"/>
<stop offset="1"/>
</radialGradient>
<radialGradient id="paint18_radial" cx="0" cy="0" r="1" gradientUnits="userSpaceOnUse" gradientTransform="translate(187.5 183.502) scale(178.373 160.535)">
<stop stop-color="#350E1A"/>
<stop offset="0.23" stop-color="#6B1D34"/>
<stop offset="0.49" stop-color="#A12B4E"/>
<stop offset="0.71" stop-color="#C83661"/>
<stop offset="0.89" stop-color="#E03D6D"/>
<stop offset="1" stop-color="#E93F71"/>
</radialGradient>
<radialGradient id="paint19_radial" cx="0" cy="0" r="1" gradientUnits="userSpaceOnUse" gradientTransform="translate(94.5 285.5) scale(28.5)">
<stop offset="0.0051" stop-color="#33495F"/>
<stop offset="1" stop-color="#2B3E51"/>
</radialGradient>
<clipPath id="clip0">
<rect width="243" height="76" fill="white" transform="translate(66 238)"/>
</clipPath>
</defs>
</svg>
