<svg width="341" height="168" viewBox="0 0 341 168" fill="none" xmlns="http://www.w3.org/2000/svg">
<g filter="url(#filter0_d)">
<rect width="341" height="168" rx="12" fill="url(#paint0_linear)"/>
</g>
<rect opacity="0.0825335" x="300" y="45.1115" width="165" height="31" rx="15.5" transform="rotate(-24 300 45.1115)" fill="black"/>
<rect opacity="0.0825335" x="135" y="5.19815" width="118.5" height="22.2636" rx="11.1318" transform="rotate(-24 135 5.19815)" fill="black"/>
<rect opacity="0.0825335" x="-133" y="75.1115" width="165" height="31" rx="15.5" transform="rotate(-24 -133 75.1115)" fill="black"/>
<rect opacity="0.0825335" x="157" y="188.878" width="127.547" height="23.9634" rx="11.9817" transform="rotate(-24 157 188.878)" fill="black"/>
<g opacity="0.096362">
<path fill-rule="evenodd" clip-rule="evenodd" d="M19.065 84.4833V78.5245C20.3494 78.9387 21.1568 79.7722 21.1568 80.5453C21.1568 81.4923 21.9372 82.2602 22.9001 82.2602C23.863 82.2602 24.6434 81.4925 24.6434 80.5453C24.6434 77.8107 22.3019 75.5831 19.065 74.9874V74.7149C19.065 73.7679 18.2846 73 17.3217 73C16.3588 73 15.5784 73.7677 15.5784 74.7149V74.9874C12.3417 75.5833 10 77.8109 10 80.5453C10 84.3661 13.1021 85.9719 15.5784 86.8962V92.8551C14.2939 92.441 13.4866 91.6074 13.4866 90.8344C13.4866 89.8874 12.7061 89.1195 11.7433 89.1195C10.7804 89.1195 10 89.8872 10 90.8344C10 93.5689 12.3415 95.7966 15.5784 96.3923V96.6648C15.5784 97.6118 16.3588 98.3797 17.3217 98.3797C18.2846 98.3797 19.065 97.612 19.065 96.6648V96.3923C22.3017 95.7963 24.6434 93.5687 24.6434 90.8344C24.6434 87.0134 21.5413 85.4076 19.065 84.4833ZM15.5786 83.1547C13.8408 82.3169 13.4868 81.5851 13.4868 80.5453C13.4868 79.7722 14.2942 78.9387 15.5786 78.5245V83.1547ZM19.065 88.2247V92.8549C20.3494 92.4408 21.1568 91.6072 21.1568 90.8342C21.1568 89.7944 20.8028 89.0626 19.065 88.2247Z" fill="black"/>
<path d="M44.6187 77H29.7433C28.7806 77 28 77.7677 28 78.7149C28 79.6618 28.7804 80.4298 29.7433 80.4298H44.6187C45.5813 80.4298 46.362 79.6621 46.362 78.7149C46.362 77.7679 45.5813 77 44.6187 77Z" fill="black"/>
<path d="M31.6027 91H29.7433C28.7806 91 28 91.7677 28 92.7149C28 93.6621 28.7804 94.4298 29.7433 94.4298H31.6027C32.5653 94.4298 33.346 93.6621 33.346 92.7149C33.346 91.7677 32.5653 91 31.6027 91Z" fill="black"/>
<path d="M63.8075 104H11.7433C10.7806 104 10 104.768 10 105.715C10 106.662 10.7804 107.43 11.7433 107.43H63.8075C64.7702 107.43 65.5508 106.662 65.5508 105.715C65.5508 104.768 64.7702 104 63.8075 104Z" fill="black"/>
<path d="M28.3217 115H22.7433C21.7806 115 21 115.768 21 116.715C21 117.662 21.7804 118.43 22.7433 118.43H28.3217C29.2843 118.43 30.065 117.662 30.065 116.715C30.065 115.768 29.2846 115 28.3217 115Z" fill="black"/>
<path d="M15.4621 115H11.7433C10.7806 115 10 115.768 10 116.715C10 117.662 10.7804 118.43 11.7433 118.43H15.4621C16.4247 118.43 17.2054 117.662 17.2054 116.715C17.2054 115.768 16.4247 115 15.4621 115Z" fill="black"/>
<path d="M28.3217 123H22.7433C21.7806 123 21 123.768 21 124.715C21 125.662 21.7804 126.43 22.7433 126.43H28.3217C29.2843 126.43 30.065 125.662 30.065 124.715C30.065 123.768 29.2846 123 28.3217 123Z" fill="black"/>
<path d="M15.4621 123H11.7433C10.7806 123 10 123.768 10 124.715C10 125.662 10.7804 126.43 11.7433 126.43H15.4621C16.4247 126.43 17.2054 125.662 17.2054 124.715C17.2054 123.768 16.4247 123 15.4621 123Z" fill="black"/>
<path d="M28.3217 129H22.7433C21.7806 129 21 129.768 21 130.715C21 131.662 21.7804 132.43 22.7433 132.43H28.3217C29.2843 132.43 30.065 131.662 30.065 130.715C30.065 129.768 29.2846 129 28.3217 129Z" fill="black"/>
<path d="M15.4621 129H11.7433C10.7806 129 10 129.768 10 130.715C10 131.662 10.7804 132.43 11.7433 132.43H15.4621C16.4247 132.43 17.2054 131.662 17.2054 130.715C17.2054 129.768 16.4247 129 15.4621 129Z" fill="black"/>
<path d="M28.3217 137H22.7433C21.7806 137 21 137.768 21 138.715C21 139.662 21.7804 140.43 22.7433 140.43H28.3217C29.2843 140.43 30.065 139.662 30.065 138.715C30.065 137.768 29.2846 137 28.3217 137Z" fill="black"/>
<path d="M15.4621 137H11.7433C10.7806 137 10 137.768 10 138.715C10 139.662 10.7804 140.43 11.7433 140.43H15.4621C16.4247 140.43 17.2054 139.662 17.2054 138.715C17.2054 137.768 16.4247 137 15.4621 137Z" fill="black"/>
<path d="M28.3217 144H22.7433C21.7806 144 21 144.768 21 145.715C21 146.662 21.7804 147.43 22.7433 147.43H28.3217C29.2843 147.43 30.065 146.662 30.065 145.715C30.065 144.768 29.2846 144 28.3217 144Z" fill="black"/>
<path d="M15.4621 144H11.7433C10.7806 144 10 144.768 10 145.715C10 146.662 10.7804 147.43 11.7433 147.43H15.4621C16.4247 147.43 17.2054 146.662 17.2054 145.715C17.2054 144.768 16.4247 144 15.4621 144Z" fill="black"/>
<path d="M50.6027 91H48.7433C47.7806 91 47 91.7677 47 92.7149C47 93.6621 47.7804 94.4298 48.7433 94.4298H50.6027C51.5653 94.4298 52.346 93.6621 52.346 92.7149C52.346 91.7677 51.5653 91 50.6027 91Z" fill="black"/>
<path d="M59.6027 91H57.7433C56.7806 91 56 91.7677 56 92.7149C56 93.6621 56.7804 94.4298 57.7433 94.4298H59.6027C60.5653 94.4298 61.346 93.6621 61.346 92.7149C61.346 91.7677 60.5655 91 59.6027 91Z" fill="black"/>
<path d="M41.6027 91H39.7433C38.7806 91 38 91.7677 38 92.7149C38 93.6621 38.7804 94.4298 39.7433 94.4298H41.6027C42.5653 94.4298 43.346 93.6621 43.346 92.7149C43.346 91.7677 42.5653 91 41.6027 91Z" fill="black"/>
<path d="M48.3377 84H29.7433C28.7806 84 28 84.7677 28 85.7149C28 86.6621 28.7804 87.4298 29.7433 87.4298H48.3377C49.3003 87.4298 50.081 86.6621 50.081 85.7149C50.081 84.7677 49.3006 84 48.3377 84Z" fill="black"/>
<path fill-rule="evenodd" clip-rule="evenodd" d="M74.1452 111.557H81.6992C85.7361 111.557 89.0206 114.788 89.0204 118.76V166.317C89.0204 170.289 85.7361 173.52 81.6989 173.52H40.7913C36.7544 173.52 33.4698 170.289 33.4698 166.317V162.545H5.46208C2.4502 162.545 0 160.134 0 157.172V69.3731C0 66.4103 2.4502 64 5.46208 64H53.8075C54.2698 64 54.7132 64.1805 55.04 64.5023L73.6347 82.794C73.9617 83.1155 74.1452 83.5516 74.1452 84.0064V111.557ZM68.1937 82.2915L55.5508 69.8546V78.5188C55.5508 80.5991 57.2713 82.2915 59.3859 82.2915H68.1937ZM33.4698 118.76V159.115H5.46208C4.37266 159.115 3.48634 158.243 3.48634 157.171V69.3731C3.48634 68.3014 4.37266 67.4295 5.46208 67.4295H52.0642V78.5188C52.0642 82.4902 55.3488 85.721 59.3857 85.721H70.6587V111.557H40.7915C36.7544 111.557 33.4698 114.788 33.4698 118.76ZM81.6992 170.09C83.8138 170.09 85.5343 168.398 85.5343 166.317V118.76C85.5343 116.679 83.8138 114.987 81.6992 114.987H40.7915C38.6768 114.987 36.9564 116.679 36.9564 118.76V166.317C36.9564 168.398 38.6768 170.09 40.7915 170.09H81.6992Z" fill="black"/>
<path fill-rule="evenodd" clip-rule="evenodd" d="M44.6027 118H78.0725C80.0591 118 81.6752 119.59 81.6752 121.544V128.861C81.6752 130.815 80.0591 132.405 78.0725 132.405H44.6027C42.6161 132.405 41 130.815 41 128.861V121.544C41 119.59 42.6161 118 44.6027 118ZM78.0727 128.975C78.1369 128.975 78.1888 128.924 78.1888 128.861H78.1886V121.544C78.1886 121.481 78.1367 121.43 78.0725 121.43H44.6027C44.5385 121.43 44.4866 121.481 44.4866 121.544V128.861C44.4866 128.924 44.5385 128.975 44.6027 128.975H78.0727Z" fill="black"/>
<path fill-rule="evenodd" clip-rule="evenodd" d="M44.6027 139H48.3215C50.3081 139 51.9242 140.59 51.9242 142.544V146.202C51.9242 148.156 50.3081 149.746 48.3215 149.746H44.6027C42.6161 149.746 41 148.156 41 146.202V142.544C41 140.59 42.6161 139 44.6027 139ZM48.3217 146.317C48.3858 146.317 48.4378 146.266 48.4378 146.202H48.4376V142.544C48.4376 142.481 48.3856 142.43 48.3215 142.43H44.6027C44.5385 142.43 44.4866 142.481 44.4866 142.544V146.202C44.4866 146.266 44.5385 146.317 44.6027 146.317H48.3217Z" fill="black"/>
<path fill-rule="evenodd" clip-rule="evenodd" d="M74.6027 139H78.3215C80.3081 139 81.9242 140.59 81.9242 142.544V146.202C81.9242 148.156 80.3081 149.746 78.3215 149.746H74.6027C72.6161 149.746 71 148.156 71 146.202V142.544C71 140.59 72.6161 139 74.6027 139ZM78.3217 146.317C78.3858 146.317 78.4378 146.266 78.4378 146.202V142.544C78.4378 142.481 78.3858 142.43 78.3217 142.43H74.6029C74.5387 142.43 74.4868 142.481 74.4868 142.544V146.202C74.4868 146.266 74.5387 146.317 74.6029 146.317H78.3217Z" fill="black"/>
<path fill-rule="evenodd" clip-rule="evenodd" d="M59.6027 139H63.3215C65.3081 139 66.9242 140.59 66.9242 142.544V146.202C66.9242 148.156 65.3081 149.746 63.3215 149.746H59.6027C57.6161 149.746 56 148.156 56 146.202V142.544C56 140.59 57.6161 139 59.6027 139ZM63.3215 146.317C63.3856 146.317 63.4376 146.266 63.4376 146.202V142.544C63.4376 142.481 63.3856 142.43 63.3215 142.43H59.6027C59.5385 142.43 59.4866 142.481 59.4866 142.544V146.202C59.4866 146.266 59.5385 146.317 59.6027 146.317H63.3215Z" fill="black"/>
<path fill-rule="evenodd" clip-rule="evenodd" d="M44.6027 153H48.3215C50.3081 153 51.9242 154.59 51.9242 156.544V160.202C51.9242 162.156 50.3081 163.746 48.3215 163.746H44.6027C42.6161 163.746 41 162.156 41 160.202V156.544C41 154.59 42.6161 153 44.6027 153ZM48.3217 160.316C48.3858 160.316 48.4378 160.265 48.4378 160.202H48.4376V156.544C48.4376 156.481 48.3856 156.43 48.3215 156.43H44.6027C44.5385 156.43 44.4866 156.481 44.4866 156.544V160.202C44.4866 160.265 44.5385 160.316 44.6027 160.316H48.3217Z" fill="black"/>
<path fill-rule="evenodd" clip-rule="evenodd" d="M74.6027 153H78.3215C80.3081 153 81.9242 154.59 81.9242 156.544V160.202C81.9242 162.156 80.3081 163.746 78.3215 163.746H74.6027C72.6161 163.746 71 162.156 71 160.202V156.544C71 154.59 72.6161 153 74.6027 153ZM78.3217 160.316C78.3858 160.316 78.4378 160.265 78.4378 160.202V156.544C78.4378 156.481 78.3858 156.43 78.3217 156.43H74.6029C74.5387 156.43 74.4868 156.481 74.4868 156.544V160.202C74.4868 160.265 74.5387 160.316 74.6029 160.316H78.3217Z" fill="black"/>
<path fill-rule="evenodd" clip-rule="evenodd" d="M59.6027 153H63.3215C65.3081 153 66.9242 154.59 66.9242 156.544V160.202C66.9242 162.156 65.3081 163.746 63.3215 163.746H59.6027C57.6161 163.746 56 162.156 56 160.202V156.544C56 154.59 57.6161 153 59.6027 153ZM63.3215 160.316C63.3856 160.316 63.4376 160.265 63.4376 160.202V156.544C63.4376 156.481 63.3856 156.43 63.3215 156.43H59.6027C59.5385 156.43 59.4866 156.481 59.4866 156.544V160.202C59.4866 160.265 59.5385 160.316 59.6027 160.316H63.3215Z" fill="black"/>
</g>
<defs>
<filter id="filter0_d" x="-8" y="0" width="357" height="188" filterUnits="userSpaceOnUse" color-interpolation-filters="sRGB">
<feFlood flood-opacity="0" result="BackgroundImageFix"/>
<feColorMatrix in="SourceAlpha" type="matrix" values="0 0 0 0 0 0 0 0 0 0 0 0 0 0 0 0 0 0 127 0"/>
<feMorphology radius="5" operator="erode" in="SourceAlpha" result="effect1_dropShadow"/>
<feOffset dy="12"/>
<feGaussianBlur stdDeviation="6.5"/>
<feColorMatrix type="matrix" values="0 0 0 0 0 0 0 0 0 0 0 0 0 0 0 0 0 0 0.285637 0"/>
<feBlend mode="normal" in2="BackgroundImageFix" result="effect1_dropShadow"/>
<feBlend mode="normal" in="SourceGraphic" in2="effect1_dropShadow" result="shape"/>
</filter>
<linearGradient id="paint0_linear" x1="-169.825" y1="84.496" x2="-35.0247" y2="355.427" gradientUnits="userSpaceOnUse">
<stop stop-color="#6F64D6"/>
<stop offset="1" stop-color="#9A46A7"/>
</linearGradient>
</defs>
</svg>
