<svg width="261" height="63" viewBox="0 0 261 63" fill="none" xmlns="http://www.w3.org/2000/svg">
<g clip-path="url(#clip0)">
<g filter="url(#filter0_d)">
<path d="M30 44L26.52 40.8349C14.16 29.6371 6 22.2518 6 13.188C6 5.80272 11.808 0 19.2 0C23.376 0 27.384 1.94223 30 5.01144C32.616 1.94223 36.624 0 40.8 0C48.192 0 54 5.80272 54 13.188C54 22.2518 45.84 29.6371 33.48 40.8589L30 44Z" fill="white"/>
<mask id="mask0" mask-type="alpha" maskUnits="userSpaceOnUse" x="6" y="0" width="48" height="44">
<path d="M30 44L26.52 40.8349C14.16 29.6371 6 22.2518 6 13.188C6 5.80272 11.808 0 19.2 0C23.376 0 27.384 1.94223 30 5.01144C32.616 1.94223 36.624 0 40.8 0C48.192 0 54 5.80272 54 13.188C54 22.2518 45.84 29.6371 33.48 40.8589L30 44Z" fill="white"/>
</mask>
<g mask="url(#mask0)">
<rect x="6" y="21" width="48" height="23" fill="#EF5C5C"/>
</g>
</g>
<path d="M7.06234 61.38V62H2.29234V54.9H6.97234V55.52H2.99234V58.08H6.46234V58.67H2.99234V61.38H7.06234ZM12.5773 62H11.8973V59.09C11.8973 58.4767 11.8039 58.03 11.6173 57.75C11.4373 57.4633 11.1573 57.32 10.7773 57.32C10.5106 57.32 10.2473 57.3867 9.98727 57.52C9.72727 57.6467 9.49727 57.8233 9.29727 58.05C9.10393 58.27 8.96393 58.5233 8.87727 58.81V62H8.19727V56.79H8.81727V57.97C9.02393 57.59 9.32727 57.2833 9.72727 57.05C10.1273 56.8167 10.5606 56.7 11.0273 56.7C11.4139 56.7 11.7206 56.7933 11.9473 56.98C12.1739 57.16 12.3339 57.42 12.4273 57.76C12.5273 58.0933 12.5773 58.49 12.5773 58.95V62ZM16.2773 62.1C15.7773 62.1 15.3307 61.9767 14.9373 61.73C14.544 61.4833 14.234 61.1533 14.0073 60.74C13.7807 60.3267 13.6673 59.8733 13.6673 59.38C13.6673 58.8933 13.7773 58.4467 13.9973 58.04C14.224 57.6333 14.534 57.31 14.9273 57.07C15.3207 56.8233 15.7673 56.7 16.2673 56.7C16.7807 56.7 17.2307 56.8233 17.6173 57.07C18.004 57.3167 18.304 57.6433 18.5173 58.05C18.7373 58.45 18.8473 58.89 18.8473 59.37C18.8473 59.4767 18.844 59.5667 18.8373 59.64H14.3773C14.4107 60.0133 14.5173 60.3467 14.6973 60.64C14.8773 60.9267 15.1073 61.1567 15.3873 61.33C15.6673 61.4967 15.974 61.58 16.3073 61.58C16.6473 61.58 16.9673 61.4933 17.2673 61.32C17.5673 61.1467 17.7807 60.92 17.9073 60.64L18.4973 60.8C18.3907 61.0533 18.224 61.28 17.9973 61.48C17.7773 61.6733 17.5207 61.8267 17.2273 61.94C16.934 62.0467 16.6173 62.1 16.2773 62.1ZM14.3573 59.15H18.2073C18.1807 58.7767 18.0773 58.4467 17.8973 58.16C17.7173 57.8667 17.4873 57.64 17.2073 57.48C16.9273 57.3133 16.6173 57.23 16.2773 57.23C15.9373 57.23 15.6273 57.3133 15.3473 57.48C15.0673 57.64 14.8373 57.8667 14.6573 58.16C14.484 58.4467 14.384 58.7767 14.3573 59.15ZM22.4965 57.39C22.0432 57.4033 21.6432 57.53 21.2965 57.77C20.9565 58.01 20.7165 58.34 20.5765 58.76V62H19.8965V56.79H20.5365V58.04C20.7165 57.6733 20.9532 57.3767 21.2465 57.15C21.5465 56.9233 21.8632 56.7967 22.1965 56.77C22.2632 56.7633 22.3198 56.76 22.3665 56.76C22.4132 56.76 22.4565 56.7633 22.4965 56.77V57.39ZM25.3556 62.07C24.9956 62.07 24.6656 61.9967 24.3656 61.85C24.0723 61.7033 23.8156 61.5067 23.5956 61.26C23.3823 61.0067 23.2156 60.72 23.0956 60.4C22.9756 60.08 22.9156 59.75 22.9156 59.41C22.9156 58.9233 23.019 58.4767 23.2256 58.07C23.4323 57.6567 23.7156 57.3267 24.0756 57.08C24.4423 56.8267 24.8623 56.7 25.3356 56.7C25.7823 56.7 26.169 56.8133 26.4956 57.04C26.829 57.2667 27.109 57.5467 27.3356 57.88V56.79H27.9456V62.02C27.9456 62.5067 27.829 62.9133 27.5956 63.24C27.3623 63.5667 27.0523 63.8133 26.6656 63.98C26.279 64.1467 25.8556 64.23 25.3956 64.23C24.7956 64.23 24.3123 64.1233 23.9456 63.91C23.5856 63.6967 23.289 63.41 23.0556 63.05L23.4756 62.72C23.6823 63.0467 23.9556 63.29 24.2956 63.45C24.6423 63.61 25.009 63.69 25.3956 63.69C25.7356 63.69 26.0456 63.6267 26.3256 63.5C26.6123 63.38 26.839 63.1967 27.0056 62.95C27.179 62.7033 27.2656 62.3933 27.2656 62.02V60.99C27.0656 61.3167 26.7923 61.58 26.4456 61.78C26.099 61.9733 25.7356 62.07 25.3556 62.07ZM25.5456 61.5C25.819 61.5 26.079 61.4367 26.3256 61.31C26.5723 61.1833 26.779 61.0233 26.9456 60.83C27.119 60.63 27.2256 60.4233 27.2656 60.21V58.6C27.1656 58.3467 27.0223 58.1233 26.8356 57.93C26.649 57.73 26.4356 57.5767 26.1956 57.47C25.9556 57.3567 25.7123 57.3 25.4656 57.3C25.079 57.3 24.7456 57.4067 24.4656 57.62C24.1923 57.8267 23.979 58.0933 23.8256 58.42C23.679 58.74 23.6056 59.0733 23.6056 59.42C23.6056 59.7933 23.6923 60.14 23.8656 60.46C24.039 60.7733 24.2723 61.0267 24.5656 61.22C24.859 61.4067 25.1856 61.5 25.5456 61.5ZM29.7473 63.6C29.8406 63.6067 29.9306 63.61 30.0173 63.61C30.1039 63.6167 30.1673 63.6133 30.2073 63.6C30.2873 63.5933 30.3606 63.5467 30.4273 63.46C30.5006 63.38 30.5873 63.2267 30.6873 63C30.7939 62.78 30.9373 62.4467 31.1173 62L28.8473 56.79H29.5673L31.4773 61.3L33.2373 56.79H33.9173L31.2173 63.51C31.1439 63.7033 31.0206 63.87 30.8473 64.01C30.6739 64.15 30.4439 64.2233 30.1573 64.23C30.0973 64.2367 30.0339 64.2367 29.9673 64.23C29.9006 64.23 29.8273 64.2233 29.7473 64.21V63.6ZM37.2826 62V54.9H37.9826V61.38H42.0826V62H37.2826ZM45.1152 62.1C44.6152 62.1 44.1686 61.9767 43.7752 61.73C43.3819 61.4833 43.0719 61.1533 42.8452 60.74C42.6186 60.3267 42.5052 59.8733 42.5052 59.38C42.5052 58.8933 42.6152 58.4467 42.8352 58.04C43.0619 57.6333 43.3719 57.31 43.7652 57.07C44.1586 56.8233 44.6052 56.7 45.1052 56.7C45.6186 56.7 46.0686 56.8233 46.4552 57.07C46.8419 57.3167 47.1419 57.6433 47.3552 58.05C47.5752 58.45 47.6852 58.89 47.6852 59.37C47.6852 59.4767 47.6819 59.5667 47.6752 59.64H43.2152C43.2486 60.0133 43.3552 60.3467 43.5352 60.64C43.7152 60.9267 43.9452 61.1567 44.2252 61.33C44.5052 61.4967 44.8119 61.58 45.1452 61.58C45.4852 61.58 45.8052 61.4933 46.1052 61.32C46.4052 61.1467 46.6186 60.92 46.7452 60.64L47.3352 60.8C47.2286 61.0533 47.0619 61.28 46.8352 61.48C46.6152 61.6733 46.3586 61.8267 46.0652 61.94C45.7719 62.0467 45.4552 62.1 45.1152 62.1ZM43.1952 59.15H47.0452C47.0186 58.7767 46.9152 58.4467 46.7352 58.16C46.5552 57.8667 46.3252 57.64 46.0452 57.48C45.7652 57.3133 45.4552 57.23 45.1152 57.23C44.7752 57.23 44.4652 57.3133 44.1852 57.48C43.9052 57.64 43.6752 57.8667 43.4952 58.16C43.3219 58.4467 43.2219 58.7767 43.1952 59.15ZM50.1477 62L48.0377 56.79H48.7477L50.5277 61.32L52.3177 56.79H52.9877L50.8777 62H50.1477ZM56.0039 62.1C55.5039 62.1 55.0572 61.9767 54.6639 61.73C54.2706 61.4833 53.9606 61.1533 53.7339 60.74C53.5072 60.3267 53.3939 59.8733 53.3939 59.38C53.3939 58.8933 53.5039 58.4467 53.7239 58.04C53.9506 57.6333 54.2606 57.31 54.6539 57.07C55.0472 56.8233 55.4939 56.7 55.9939 56.7C56.5072 56.7 56.9572 56.8233 57.3439 57.07C57.7306 57.3167 58.0306 57.6433 58.2439 58.05C58.4639 58.45 58.5739 58.89 58.5739 59.37C58.5739 59.4767 58.5706 59.5667 58.5639 59.64H54.1039C54.1372 60.0133 54.2439 60.3467 54.4239 60.64C54.6039 60.9267 54.8339 61.1567 55.1139 61.33C55.3939 61.4967 55.7006 61.58 56.0339 61.58C56.3739 61.58 56.6939 61.4933 56.9939 61.32C57.2939 61.1467 57.5072 60.92 57.6339 60.64L58.2239 60.8C58.1172 61.0533 57.9506 61.28 57.7239 61.48C57.5039 61.6733 57.2472 61.8267 56.9539 61.94C56.6606 62.0467 56.3439 62.1 56.0039 62.1ZM54.0839 59.15H57.9339C57.9072 58.7767 57.8039 58.4467 57.6239 58.16C57.4439 57.8667 57.2139 57.64 56.9339 57.48C56.6539 57.3133 56.3439 57.23 56.0039 57.23C55.6639 57.23 55.3539 57.3133 55.0739 57.48C54.7939 57.64 54.5639 57.8667 54.3839 58.16C54.2106 58.4467 54.1106 58.7767 54.0839 59.15ZM59.653 54.7H60.333V60.82C60.333 61.08 60.3764 61.25 60.463 61.33C60.5564 61.41 60.673 61.45 60.813 61.45C60.933 61.45 61.053 61.4367 61.173 61.41C61.2997 61.3833 61.403 61.3567 61.483 61.33L61.603 61.88C61.4764 61.9333 61.3197 61.9767 61.133 62.01C60.953 62.0433 60.7964 62.06 60.663 62.06C60.3564 62.06 60.1097 61.97 59.923 61.79C59.743 61.61 59.653 61.3633 59.653 61.05V54.7Z" fill="#701E42"/>
</g>
<g clip-path="url(#clip1)">
<g filter="url(#filter1_d)">
<path d="M131 44L127.52 40.8349C115.16 29.6371 107 22.2518 107 13.188C107 5.80272 112.808 0 120.2 0C124.376 0 128.384 1.94223 131 5.01144C133.616 1.94223 137.624 0 141.8 0C149.192 0 155 5.80272 155 13.188C155 22.2518 146.84 29.6371 134.48 40.8589L131 44Z" fill="white"/>
<mask id="mask1" mask-type="alpha" maskUnits="userSpaceOnUse" x="107" y="0" width="48" height="44">
<path d="M131 44L127.52 40.8349C115.16 29.6371 107 22.2518 107 13.188C107 5.80272 112.808 0 120.2 0C124.376 0 128.384 1.94223 131 5.01144C133.616 1.94223 137.624 0 141.8 0C149.192 0 155 5.80272 155 13.188C155 22.2518 146.84 29.6371 134.48 40.8589L131 44Z" fill="white"/>
</mask>
<g mask="url(#mask1)">
<rect x="107" y="12" width="48" height="32" fill="#EF5C5C"/>
</g>
</g>
<path d="M96.9115 62V54.9H99.8515C100.158 54.9 100.438 54.9633 100.691 55.09C100.951 55.2167 101.175 55.39 101.361 55.61C101.555 55.8233 101.701 56.0633 101.801 56.33C101.908 56.59 101.961 56.8567 101.961 57.13C101.961 57.5167 101.875 57.8833 101.701 58.23C101.528 58.57 101.288 58.8467 100.981 59.06C100.675 59.2733 100.318 59.38 99.9115 59.38H97.6115V62H96.9115ZM97.6115 58.76H99.8815C100.161 58.76 100.405 58.6833 100.611 58.53C100.818 58.3767 100.978 58.1767 101.091 57.93C101.205 57.6833 101.261 57.4167 101.261 57.13C101.261 56.8367 101.195 56.57 101.061 56.33C100.928 56.0833 100.751 55.8867 100.531 55.74C100.318 55.5933 100.081 55.52 99.8215 55.52H97.6115V58.76ZM105.592 57.39C105.139 57.4033 104.739 57.53 104.392 57.77C104.052 58.01 103.812 58.34 103.672 58.76V62H102.992V56.79H103.632V58.04C103.812 57.6733 104.049 57.3767 104.342 57.15C104.642 56.9233 104.959 56.7967 105.292 56.77C105.359 56.7633 105.416 56.76 105.462 56.76C105.509 56.76 105.552 56.7633 105.592 56.77V57.39ZM108.592 62.1C108.092 62.1 107.645 61.9767 107.252 61.73C106.858 61.4833 106.548 61.1533 106.322 60.74C106.095 60.3267 105.982 59.8733 105.982 59.38C105.982 58.8933 106.092 58.4467 106.312 58.04C106.538 57.6333 106.848 57.31 107.242 57.07C107.635 56.8233 108.082 56.7 108.582 56.7C109.095 56.7 109.545 56.8233 109.932 57.07C110.318 57.3167 110.618 57.6433 110.832 58.05C111.052 58.45 111.162 58.89 111.162 59.37C111.162 59.4767 111.158 59.5667 111.152 59.64H106.692C106.725 60.0133 106.832 60.3467 107.012 60.64C107.192 60.9267 107.422 61.1567 107.702 61.33C107.982 61.4967 108.288 61.58 108.622 61.58C108.962 61.58 109.282 61.4933 109.582 61.32C109.882 61.1467 110.095 60.92 110.222 60.64L110.812 60.8C110.705 61.0533 110.538 61.28 110.312 61.48C110.092 61.6733 109.835 61.8267 109.542 61.94C109.248 62.0467 108.932 62.1 108.592 62.1ZM106.672 59.15H110.522C110.495 58.7767 110.392 58.4467 110.212 58.16C110.032 57.8667 109.802 57.64 109.522 57.48C109.242 57.3133 108.932 57.23 108.592 57.23C108.252 57.23 107.942 57.3133 107.662 57.48C107.382 57.64 107.152 57.8667 106.972 58.16C106.798 58.4467 106.698 58.7767 106.672 59.15ZM113.624 62L111.514 56.79H112.224L114.004 61.32L115.794 56.79H116.464L114.354 62H113.624ZM119.48 62.1C118.98 62.1 118.534 61.9767 118.14 61.73C117.747 61.4833 117.437 61.1533 117.21 60.74C116.984 60.3267 116.87 59.8733 116.87 59.38C116.87 58.8933 116.98 58.4467 117.2 58.04C117.427 57.6333 117.737 57.31 118.13 57.07C118.524 56.8233 118.97 56.7 119.47 56.7C119.984 56.7 120.434 56.8233 120.82 57.07C121.207 57.3167 121.507 57.6433 121.72 58.05C121.94 58.45 122.05 58.89 122.05 59.37C122.05 59.4767 122.047 59.5667 122.04 59.64H117.58C117.614 60.0133 117.72 60.3467 117.9 60.64C118.08 60.9267 118.31 61.1567 118.59 61.33C118.87 61.4967 119.177 61.58 119.51 61.58C119.85 61.58 120.17 61.4933 120.47 61.32C120.77 61.1467 120.984 60.92 121.11 60.64L121.7 60.8C121.594 61.0533 121.427 61.28 121.2 61.48C120.98 61.6733 120.724 61.8267 120.43 61.94C120.137 62.0467 119.82 62.1 119.48 62.1ZM117.56 59.15H121.41C121.384 58.7767 121.28 58.4467 121.1 58.16C120.92 57.8667 120.69 57.64 120.41 57.48C120.13 57.3133 119.82 57.23 119.48 57.23C119.14 57.23 118.83 57.3133 118.55 57.48C118.27 57.64 118.04 57.8667 117.86 58.16C117.687 58.4467 117.587 58.7767 117.56 59.15ZM127.48 62H126.8V59.09C126.8 58.4767 126.706 58.03 126.52 57.75C126.34 57.4633 126.06 57.32 125.68 57.32C125.413 57.32 125.15 57.3867 124.89 57.52C124.63 57.6467 124.4 57.8233 124.2 58.05C124.006 58.27 123.866 58.5233 123.78 58.81V62H123.1V56.79H123.72V57.97C123.926 57.59 124.23 57.2833 124.63 57.05C125.03 56.8167 125.463 56.7 125.93 56.7C126.316 56.7 126.623 56.7933 126.85 56.98C127.076 57.16 127.236 57.42 127.33 57.76C127.43 58.0933 127.48 58.49 127.48 58.95V62ZM131.381 61.75C131.301 61.7833 131.154 61.8433 130.941 61.93C130.728 62.0167 130.481 62.06 130.201 62.06C129.908 62.06 129.651 61.9767 129.431 61.81C129.211 61.6433 129.101 61.3933 129.101 61.06V57.33H128.381V56.79H129.101V55.03H129.781V56.79H130.981V57.33H129.781V60.87C129.794 61.0633 129.861 61.2067 129.981 61.3C130.108 61.3867 130.251 61.43 130.411 61.43C130.598 61.43 130.764 61.4 130.911 61.34C131.064 61.2733 131.161 61.2267 131.201 61.2L131.381 61.75ZM134.449 58.4C134.449 57.9733 134.523 57.55 134.669 57.13C134.823 56.71 135.043 56.33 135.329 55.99C135.616 55.6433 135.969 55.37 136.389 55.17C136.809 54.9633 137.286 54.86 137.819 54.86C138.446 54.86 138.986 55.0067 139.439 55.3C139.893 55.5867 140.226 55.9567 140.439 56.41L139.889 56.75C139.736 56.4367 139.543 56.19 139.309 56.01C139.076 55.8233 138.826 55.69 138.559 55.61C138.299 55.53 138.039 55.49 137.779 55.49C137.353 55.49 136.976 55.5767 136.649 55.75C136.323 55.9167 136.046 56.1433 135.819 56.43C135.599 56.7167 135.433 57.0333 135.319 57.38C135.206 57.7267 135.149 58.08 135.149 58.44C135.149 58.8333 135.216 59.21 135.349 59.57C135.483 59.9233 135.669 60.24 135.909 60.52C136.149 60.8 136.429 61.0233 136.749 61.19C137.076 61.35 137.429 61.43 137.809 61.43C138.076 61.43 138.349 61.3833 138.629 61.29C138.909 61.1967 139.169 61.0533 139.409 60.86C139.649 60.6667 139.846 60.4167 139.999 60.11L140.579 60.41C140.426 60.7633 140.196 61.0633 139.889 61.31C139.589 61.5567 139.249 61.7433 138.869 61.87C138.496 61.9967 138.129 62.06 137.769 62.06C137.283 62.06 136.836 61.9567 136.429 61.75C136.023 61.5367 135.669 61.2567 135.369 60.91C135.076 60.5567 134.849 60.1633 134.689 59.73C134.529 59.29 134.449 58.8467 134.449 58.4ZM141.215 60.5C141.215 60.18 141.308 59.9033 141.495 59.67C141.681 59.43 141.938 59.2433 142.265 59.11C142.598 58.9767 142.981 58.91 143.415 58.91C143.668 58.91 143.931 58.9333 144.205 58.98C144.478 59.02 144.721 59.0767 144.935 59.15V58.71C144.935 58.27 144.805 57.92 144.545 57.66C144.285 57.4 143.925 57.27 143.465 57.27C143.191 57.27 142.918 57.3233 142.645 57.43C142.371 57.53 142.088 57.68 141.795 57.88L141.535 57.4C141.875 57.1667 142.208 56.9933 142.535 56.88C142.861 56.76 143.195 56.7 143.535 56.7C144.175 56.7 144.681 56.8833 145.055 57.25C145.428 57.6167 145.615 58.1233 145.615 58.77V61.18C145.615 61.36 145.698 61.4533 145.865 61.46V62C145.718 62.02 145.615 62.0267 145.555 62.02C145.388 62.0133 145.261 61.96 145.175 61.86C145.088 61.76 145.041 61.6533 145.035 61.54L145.025 61.16C144.791 61.46 144.488 61.6933 144.115 61.86C143.741 62.02 143.361 62.1 142.975 62.1C142.635 62.1 142.331 62.03 142.065 61.89C141.798 61.7433 141.588 61.55 141.435 61.31C141.288 61.0633 141.215 60.7933 141.215 60.5ZM144.705 60.9C144.858 60.72 144.935 60.5533 144.935 60.4V59.64C144.475 59.46 143.995 59.37 143.495 59.37C143.008 59.37 142.615 59.4667 142.315 59.66C142.015 59.8533 141.865 60.1167 141.865 60.45C141.865 60.7367 141.975 60.9967 142.195 61.23C142.421 61.4633 142.735 61.58 143.135 61.58C143.461 61.58 143.765 61.5167 144.045 61.39C144.331 61.2633 144.551 61.1 144.705 60.9ZM151.464 62H150.784V59.09C150.784 58.4767 150.691 58.03 150.504 57.75C150.324 57.4633 150.044 57.32 149.664 57.32C149.397 57.32 149.134 57.3867 148.874 57.52C148.614 57.6467 148.384 57.8233 148.184 58.05C147.991 58.27 147.851 58.5233 147.764 58.81V62H147.084V56.79H147.704V57.97C147.911 57.59 148.214 57.2833 148.614 57.05C149.014 56.8167 149.447 56.7 149.914 56.7C150.301 56.7 150.607 56.7933 150.834 56.98C151.061 57.16 151.221 57.42 151.314 57.76C151.414 58.0933 151.464 58.49 151.464 58.95V62ZM155.174 62.1C154.667 62.1 154.217 61.9767 153.824 61.73C153.431 61.4767 153.121 61.1467 152.894 60.74C152.667 60.3267 152.554 59.8733 152.554 59.38C152.554 58.8867 152.664 58.44 152.884 58.04C153.104 57.6333 153.411 57.31 153.804 57.07C154.197 56.8233 154.651 56.7 155.164 56.7C155.651 56.7 156.077 56.8133 156.444 57.04C156.817 57.26 157.097 57.56 157.284 57.94L156.624 58.15C156.477 57.8833 156.271 57.6767 156.004 57.53C155.744 57.3767 155.454 57.3 155.134 57.3C154.781 57.3 154.461 57.39 154.174 57.57C153.894 57.75 153.667 58 153.494 58.32C153.327 58.6333 153.244 58.9867 153.244 59.38C153.244 59.7733 153.331 60.13 153.504 60.45C153.677 60.77 153.907 61.0267 154.194 61.22C154.481 61.4067 154.797 61.5 155.144 61.5C155.371 61.5 155.591 61.46 155.804 61.38C156.017 61.3 156.201 61.1933 156.354 61.06C156.507 60.92 156.611 60.77 156.664 60.61L157.334 60.81C157.241 61.0567 157.087 61.28 156.874 61.48C156.661 61.6733 156.407 61.8267 156.114 61.94C155.821 62.0467 155.507 62.1 155.174 62.1ZM160.604 62.1C160.104 62.1 159.657 61.9767 159.264 61.73C158.87 61.4833 158.56 61.1533 158.334 60.74C158.107 60.3267 157.994 59.8733 157.994 59.38C157.994 58.8933 158.104 58.4467 158.324 58.04C158.55 57.6333 158.86 57.31 159.254 57.07C159.647 56.8233 160.094 56.7 160.594 56.7C161.107 56.7 161.557 56.8233 161.944 57.07C162.33 57.3167 162.63 57.6433 162.844 58.05C163.064 58.45 163.174 58.89 163.174 59.37C163.174 59.4767 163.17 59.5667 163.164 59.64H158.704C158.737 60.0133 158.844 60.3467 159.024 60.64C159.204 60.9267 159.434 61.1567 159.714 61.33C159.994 61.4967 160.3 61.58 160.634 61.58C160.974 61.58 161.294 61.4933 161.594 61.32C161.894 61.1467 162.107 60.92 162.234 60.64L162.824 60.8C162.717 61.0533 162.55 61.28 162.324 61.48C162.104 61.6733 161.847 61.8267 161.554 61.94C161.26 62.0467 160.944 62.1 160.604 62.1ZM158.684 59.15H162.534C162.507 58.7767 162.404 58.4467 162.224 58.16C162.044 57.8667 161.814 57.64 161.534 57.48C161.254 57.3133 160.944 57.23 160.604 57.23C160.264 57.23 159.954 57.3133 159.674 57.48C159.394 57.64 159.164 57.8667 158.984 58.16C158.81 58.4467 158.71 58.7767 158.684 59.15ZM166.823 57.39C166.369 57.4033 165.969 57.53 165.623 57.77C165.283 58.01 165.043 58.34 164.903 58.76V62H164.223V56.79H164.863V58.04C165.043 57.6733 165.279 57.3767 165.573 57.15C165.873 56.9233 166.189 56.7967 166.523 56.77C166.589 56.7633 166.646 56.76 166.693 56.76C166.739 56.76 166.783 56.7633 166.823 56.77V57.39Z" fill="#701E42"/>
</g>
<g clip-path="url(#clip2)">
<g filter="url(#filter2_d)">
<path d="M222 44L218.52 40.8349C206.16 29.6371 198 22.2518 198 13.188C198 5.80272 203.808 0 211.2 0C215.376 0 219.384 1.94223 222 5.01144C224.616 1.94223 228.624 0 232.8 0C240.192 0 246 5.80272 246 13.188C246 22.2518 237.84 29.6371 225.48 40.8589L222 44Z" fill="white"/>
<mask id="mask2" mask-type="alpha" maskUnits="userSpaceOnUse" x="198" y="0" width="48" height="44">
<path d="M222 44L218.52 40.8349C206.16 29.6371 198 22.2518 198 13.188C198 5.80272 203.808 0 211.2 0C215.376 0 219.384 1.94223 222 5.01144C224.616 1.94223 228.624 0 232.8 0C240.192 0 246 5.80272 246 13.188C246 22.2518 237.84 29.6371 225.48 40.8589L222 44Z" fill="white"/>
</mask>
<g mask="url(#mask2)">
<rect x="198" y="33" width="48" height="11" fill="#EF5C5C"/>
</g>
</g>
<path d="M188.824 62.1C188.418 62.1 188.041 61.9967 187.694 61.79C187.348 61.5767 187.078 61.31 186.884 60.99V62H186.274V54.7H186.954V57.88C187.188 57.5267 187.468 57.2433 187.794 57.03C188.121 56.81 188.501 56.7 188.934 56.7C189.301 56.7 189.628 56.7767 189.914 56.93C190.208 57.0833 190.458 57.29 190.664 57.55C190.871 57.8033 191.028 58.0933 191.134 58.42C191.241 58.74 191.294 59.07 191.294 59.41C191.294 59.8967 191.184 60.3433 190.964 60.75C190.751 61.1567 190.458 61.4833 190.084 61.73C189.711 61.9767 189.291 62.1 188.824 62.1ZM188.664 61.5C189.044 61.5 189.378 61.4 189.664 61.2C189.958 61 190.188 60.7433 190.354 60.43C190.521 60.11 190.604 59.77 190.604 59.41C190.604 59.0433 190.524 58.7 190.364 58.38C190.211 58.06 189.994 57.8 189.714 57.6C189.434 57.4 189.111 57.3 188.744 57.3C188.338 57.3 187.978 57.43 187.664 57.69C187.358 57.95 187.121 58.2533 186.954 58.6V60.22C186.988 60.46 187.098 60.6767 187.284 60.87C187.471 61.0633 187.691 61.2167 187.944 61.33C188.198 61.4433 188.438 61.5 188.664 61.5ZM194.696 62.1C194.196 62.1 193.75 61.9767 193.356 61.73C192.963 61.4833 192.653 61.1533 192.426 60.74C192.2 60.3267 192.086 59.8733 192.086 59.38C192.086 58.8933 192.196 58.4467 192.416 58.04C192.643 57.6333 192.953 57.31 193.346 57.07C193.74 56.8233 194.186 56.7 194.686 56.7C195.2 56.7 195.65 56.8233 196.036 57.07C196.423 57.3167 196.723 57.6433 196.936 58.05C197.156 58.45 197.266 58.89 197.266 59.37C197.266 59.4767 197.263 59.5667 197.256 59.64H192.796C192.83 60.0133 192.936 60.3467 193.116 60.64C193.296 60.9267 193.526 61.1567 193.806 61.33C194.086 61.4967 194.393 61.58 194.726 61.58C195.066 61.58 195.386 61.4933 195.686 61.32C195.986 61.1467 196.2 60.92 196.326 60.64L196.916 60.8C196.81 61.0533 196.643 61.28 196.416 61.48C196.196 61.6733 195.94 61.8267 195.646 61.94C195.353 62.0467 195.036 62.1 194.696 62.1ZM192.776 59.15H196.626C196.6 58.7767 196.496 58.4467 196.316 58.16C196.136 57.8667 195.906 57.64 195.626 57.48C195.346 57.3133 195.036 57.23 194.696 57.23C194.356 57.23 194.046 57.3133 193.766 57.48C193.486 57.64 193.256 57.8667 193.076 58.16C192.903 58.4467 192.803 58.7767 192.776 59.15ZM200.767 61.75C200.687 61.7833 200.54 61.8433 200.327 61.93C200.113 62.0167 199.867 62.06 199.587 62.06C199.293 62.06 199.037 61.9767 198.817 61.81C198.597 61.6433 198.487 61.3933 198.487 61.06V57.33H197.767V56.79H198.487V55.03H199.167V56.79H200.367V57.33H199.167V60.87C199.18 61.0633 199.247 61.2067 199.367 61.3C199.493 61.3867 199.637 61.43 199.797 61.43C199.983 61.43 200.15 61.4 200.297 61.34C200.45 61.2733 200.547 61.2267 200.587 61.2L200.767 61.75ZM204.116 61.75C204.036 61.7833 203.89 61.8433 203.676 61.93C203.463 62.0167 203.216 62.06 202.936 62.06C202.643 62.06 202.386 61.9767 202.166 61.81C201.946 61.6433 201.836 61.3933 201.836 61.06V57.33H201.116V56.79H201.836V55.03H202.516V56.79H203.716V57.33H202.516V60.87C202.53 61.0633 202.596 61.2067 202.716 61.3C202.843 61.3867 202.986 61.43 203.146 61.43C203.333 61.43 203.5 61.4 203.646 61.34C203.8 61.2733 203.896 61.2267 203.936 61.2L204.116 61.75ZM207.128 62.1C206.628 62.1 206.181 61.9767 205.788 61.73C205.395 61.4833 205.085 61.1533 204.858 60.74C204.631 60.3267 204.518 59.8733 204.518 59.38C204.518 58.8933 204.628 58.4467 204.848 58.04C205.075 57.6333 205.385 57.31 205.778 57.07C206.171 56.8233 206.618 56.7 207.118 56.7C207.631 56.7 208.081 56.8233 208.468 57.07C208.855 57.3167 209.155 57.6433 209.368 58.05C209.588 58.45 209.698 58.89 209.698 59.37C209.698 59.4767 209.695 59.5667 209.688 59.64H205.228C205.261 60.0133 205.368 60.3467 205.548 60.64C205.728 60.9267 205.958 61.1567 206.238 61.33C206.518 61.4967 206.825 61.58 207.158 61.58C207.498 61.58 207.818 61.4933 208.118 61.32C208.418 61.1467 208.631 60.92 208.758 60.64L209.348 60.8C209.241 61.0533 209.075 61.28 208.848 61.48C208.628 61.6733 208.371 61.8267 208.078 61.94C207.785 62.0467 207.468 62.1 207.128 62.1ZM205.208 59.15H209.058C209.031 58.7767 208.928 58.4467 208.748 58.16C208.568 57.8667 208.338 57.64 208.058 57.48C207.778 57.3133 207.468 57.23 207.128 57.23C206.788 57.23 206.478 57.3133 206.198 57.48C205.918 57.64 205.688 57.8667 205.508 58.16C205.335 58.4467 205.235 58.7767 205.208 59.15ZM213.347 57.39C212.894 57.4033 212.494 57.53 212.147 57.77C211.807 58.01 211.567 58.34 211.427 58.76V62H210.747V56.79H211.387V58.04C211.567 57.6733 211.804 57.3767 212.097 57.15C212.397 56.9233 212.714 56.7967 213.047 56.77C213.114 56.7633 213.17 56.76 213.217 56.76C213.264 56.76 213.307 56.7633 213.347 56.77V57.39ZM222.047 60.17C222.047 60.5233 221.957 60.84 221.777 61.12C221.597 61.3933 221.354 61.61 221.047 61.77C220.747 61.9233 220.417 62 220.057 62H216.707V54.9H220.127C220.461 54.9 220.747 54.99 220.987 55.17C221.227 55.3433 221.414 55.57 221.547 55.85C221.681 56.1233 221.747 56.41 221.747 56.71C221.747 57.0633 221.657 57.39 221.477 57.69C221.297 57.99 221.047 58.2133 220.727 58.36C221.127 58.48 221.447 58.7033 221.687 59.03C221.927 59.3567 222.047 59.7367 222.047 60.17ZM217.407 55.51V58.13H219.847C220.081 58.13 220.287 58.07 220.467 57.95C220.654 57.8233 220.797 57.6633 220.897 57.47C221.004 57.27 221.057 57.0533 221.057 56.82C221.057 56.58 221.007 56.36 220.907 56.16C220.807 55.96 220.671 55.8033 220.497 55.69C220.324 55.57 220.127 55.51 219.907 55.51H217.407ZM221.347 60.05C221.347 59.8167 221.294 59.5967 221.187 59.39C221.081 59.1833 220.934 59.0167 220.747 58.89C220.567 58.7633 220.361 58.7 220.127 58.7H217.407V61.39H220.057C220.297 61.39 220.514 61.3267 220.707 61.2C220.901 61.0733 221.054 60.91 221.167 60.71C221.287 60.5033 221.347 60.2833 221.347 60.05ZM225.828 57.39C225.374 57.4033 224.974 57.53 224.628 57.77C224.288 58.01 224.048 58.34 223.908 58.76V62H223.228V56.79H223.868V58.04C224.048 57.6733 224.284 57.3767 224.578 57.15C224.878 56.9233 225.194 56.7967 225.528 56.77C225.594 56.7633 225.651 56.76 225.698 56.76C225.744 56.76 225.788 56.7633 225.828 56.77V57.39ZM228.827 62.1C228.327 62.1 227.88 61.9767 227.487 61.73C227.094 61.4833 226.784 61.1533 226.557 60.74C226.33 60.3267 226.217 59.8733 226.217 59.38C226.217 58.8933 226.327 58.4467 226.547 58.04C226.774 57.6333 227.084 57.31 227.477 57.07C227.87 56.8233 228.317 56.7 228.817 56.7C229.33 56.7 229.78 56.8233 230.167 57.07C230.554 57.3167 230.854 57.6433 231.067 58.05C231.287 58.45 231.397 58.89 231.397 59.37C231.397 59.4767 231.394 59.5667 231.387 59.64H226.927C226.96 60.0133 227.067 60.3467 227.247 60.64C227.427 60.9267 227.657 61.1567 227.937 61.33C228.217 61.4967 228.524 61.58 228.857 61.58C229.197 61.58 229.517 61.4933 229.817 61.32C230.117 61.1467 230.33 60.92 230.457 60.64L231.047 60.8C230.94 61.0533 230.774 61.28 230.547 61.48C230.327 61.6733 230.07 61.8267 229.777 61.94C229.484 62.0467 229.167 62.1 228.827 62.1ZM226.907 59.15H230.757C230.73 58.7767 230.627 58.4467 230.447 58.16C230.267 57.8667 230.037 57.64 229.757 57.48C229.477 57.3133 229.167 57.23 228.827 57.23C228.487 57.23 228.177 57.3133 227.897 57.48C227.617 57.64 227.387 57.8667 227.207 58.16C227.034 58.4467 226.934 58.7767 226.907 59.15ZM232.026 60.5C232.026 60.18 232.12 59.9033 232.306 59.67C232.493 59.43 232.75 59.2433 233.076 59.11C233.41 58.9767 233.793 58.91 234.226 58.91C234.48 58.91 234.743 58.9333 235.016 58.98C235.29 59.02 235.533 59.0767 235.746 59.15V58.71C235.746 58.27 235.616 57.92 235.356 57.66C235.096 57.4 234.736 57.27 234.276 57.27C234.003 57.27 233.73 57.3233 233.456 57.43C233.183 57.53 232.9 57.68 232.606 57.88L232.346 57.4C232.686 57.1667 233.02 56.9933 233.346 56.88C233.673 56.76 234.006 56.7 234.346 56.7C234.986 56.7 235.493 56.8833 235.866 57.25C236.24 57.6167 236.426 58.1233 236.426 58.77V61.18C236.426 61.36 236.51 61.4533 236.676 61.46V62C236.53 62.02 236.426 62.0267 236.366 62.02C236.2 62.0133 236.073 61.96 235.986 61.86C235.9 61.76 235.853 61.6533 235.846 61.54L235.836 61.16C235.603 61.46 235.3 61.6933 234.926 61.86C234.553 62.02 234.173 62.1 233.786 62.1C233.446 62.1 233.143 62.03 232.876 61.89C232.61 61.7433 232.4 61.55 232.246 61.31C232.1 61.0633 232.026 60.7933 232.026 60.5ZM235.516 60.9C235.67 60.72 235.746 60.5533 235.746 60.4V59.64C235.286 59.46 234.806 59.37 234.306 59.37C233.82 59.37 233.426 59.4667 233.126 59.66C232.826 59.8533 232.676 60.1167 232.676 60.45C232.676 60.7367 232.786 60.9967 233.006 61.23C233.233 61.4633 233.546 61.58 233.946 61.58C234.273 61.58 234.576 61.5167 234.856 61.39C235.143 61.2633 235.363 61.1 235.516 60.9ZM240.356 61.75C240.276 61.7833 240.13 61.8433 239.916 61.93C239.703 62.0167 239.456 62.06 239.176 62.06C238.883 62.06 238.626 61.9767 238.406 61.81C238.186 61.6433 238.076 61.3933 238.076 61.06V57.33H237.356V56.79H238.076V55.03H238.756V56.79H239.956V57.33H238.756V60.87C238.77 61.0633 238.836 61.2067 238.956 61.3C239.083 61.3867 239.226 61.43 239.386 61.43C239.573 61.43 239.74 61.4 239.886 61.34C240.04 61.2733 240.136 61.2267 240.176 61.2L240.356 61.75ZM245.586 62H244.906V59.09C244.906 57.91 244.506 57.32 243.706 57.32C243.446 57.32 243.193 57.3867 242.946 57.52C242.699 57.6467 242.479 57.8233 242.286 58.05C242.099 58.27 241.966 58.5233 241.886 58.81V62H241.206V54.7H241.886V57.97C242.093 57.5833 242.379 57.2767 242.746 57.05C243.119 56.8167 243.516 56.7 243.936 56.7C244.336 56.7 244.656 56.7967 244.896 56.99C245.136 57.1767 245.309 57.44 245.416 57.78C245.529 58.1133 245.586 58.5033 245.586 58.95V62ZM247.036 55.7V54.7H247.716V55.7H247.036ZM247.036 62V56.79H247.716V62H247.036ZM253.594 62H252.914V59.09C252.914 58.4767 252.821 58.03 252.634 57.75C252.454 57.4633 252.174 57.32 251.794 57.32C251.527 57.32 251.264 57.3867 251.004 57.52C250.744 57.6467 250.514 57.8233 250.314 58.05C250.121 58.27 249.981 58.5233 249.894 58.81V62H249.214V56.79H249.834V57.97C250.041 57.59 250.344 57.2833 250.744 57.05C251.144 56.8167 251.577 56.7 252.044 56.7C252.431 56.7 252.737 56.7933 252.964 56.98C253.191 57.16 253.351 57.42 253.444 57.76C253.544 58.0933 253.594 58.49 253.594 58.95V62ZM257.134 62.07C256.774 62.07 256.444 61.9967 256.144 61.85C255.851 61.7033 255.594 61.5067 255.374 61.26C255.161 61.0067 254.994 60.72 254.874 60.4C254.754 60.08 254.694 59.75 254.694 59.41C254.694 58.9233 254.797 58.4767 255.004 58.07C255.211 57.6567 255.494 57.3267 255.854 57.08C256.221 56.8267 256.641 56.7 257.114 56.7C257.561 56.7 257.947 56.8133 258.274 57.04C258.607 57.2667 258.887 57.5467 259.114 57.88V56.79H259.724V62.02C259.724 62.5067 259.607 62.9133 259.374 63.24C259.141 63.5667 258.831 63.8133 258.444 63.98C258.057 64.1467 257.634 64.23 257.174 64.23C256.574 64.23 256.091 64.1233 255.724 63.91C255.364 63.6967 255.067 63.41 254.834 63.05L255.254 62.72C255.461 63.0467 255.734 63.29 256.074 63.45C256.421 63.61 256.787 63.69 257.174 63.69C257.514 63.69 257.824 63.6267 258.104 63.5C258.391 63.38 258.617 63.1967 258.784 62.95C258.957 62.7033 259.044 62.3933 259.044 62.02V60.99C258.844 61.3167 258.571 61.58 258.224 61.78C257.877 61.9733 257.514 62.07 257.134 62.07ZM257.324 61.5C257.597 61.5 257.857 61.4367 258.104 61.31C258.351 61.1833 258.557 61.0233 258.724 60.83C258.897 60.63 259.004 60.4233 259.044 60.21V58.6C258.944 58.3467 258.801 58.1233 258.614 57.93C258.427 57.73 258.214 57.5767 257.974 57.47C257.734 57.3567 257.491 57.3 257.244 57.3C256.857 57.3 256.524 57.4067 256.244 57.62C255.971 57.8267 255.757 58.0933 255.604 58.42C255.457 58.74 255.384 59.0733 255.384 59.42C255.384 59.7933 255.471 60.14 255.644 60.46C255.817 60.7733 256.051 61.0267 256.344 61.22C256.637 61.4067 256.964 61.5 257.324 61.5Z" fill="#701E42"/>
</g>
<defs>
<filter id="filter0_d" x="2" y="-2" width="56" height="52" filterUnits="userSpaceOnUse" color-interpolation-filters="sRGB">
<feFlood flood-opacity="0" result="BackgroundImageFix"/>
<feColorMatrix in="SourceAlpha" type="matrix" values="0 0 0 0 0 0 0 0 0 0 0 0 0 0 0 0 0 0 127 0"/>
<feOffset dy="2"/>
<feGaussianBlur stdDeviation="2"/>
<feColorMatrix type="matrix" values="0 0 0 0 0 0 0 0 0 0 0 0 0 0 0 0 0 0 0.165987 0"/>
<feBlend mode="normal" in2="BackgroundImageFix" result="effect1_dropShadow"/>
<feBlend mode="normal" in="SourceGraphic" in2="effect1_dropShadow" result="shape"/>
</filter>
<filter id="filter1_d" x="103" y="-2" width="56" height="52" filterUnits="userSpaceOnUse" color-interpolation-filters="sRGB">
<feFlood flood-opacity="0" result="BackgroundImageFix"/>
<feColorMatrix in="SourceAlpha" type="matrix" values="0 0 0 0 0 0 0 0 0 0 0 0 0 0 0 0 0 0 127 0"/>
<feOffset dy="2"/>
<feGaussianBlur stdDeviation="2"/>
<feColorMatrix type="matrix" values="0 0 0 0 0 0 0 0 0 0 0 0 0 0 0 0 0 0 0.165987 0"/>
<feBlend mode="normal" in2="BackgroundImageFix" result="effect1_dropShadow"/>
<feBlend mode="normal" in="SourceGraphic" in2="effect1_dropShadow" result="shape"/>
</filter>
<filter id="filter2_d" x="194" y="-2" width="56" height="52" filterUnits="userSpaceOnUse" color-interpolation-filters="sRGB">
<feFlood flood-opacity="0" result="BackgroundImageFix"/>
<feColorMatrix in="SourceAlpha" type="matrix" values="0 0 0 0 0 0 0 0 0 0 0 0 0 0 0 0 0 0 127 0"/>
<feOffset dy="2"/>
<feGaussianBlur stdDeviation="2"/>
<feColorMatrix type="matrix" values="0 0 0 0 0 0 0 0 0 0 0 0 0 0 0 0 0 0 0.165987 0"/>
<feBlend mode="normal" in2="BackgroundImageFix" result="effect1_dropShadow"/>
<feBlend mode="normal" in="SourceGraphic" in2="effect1_dropShadow" result="shape"/>
</filter>
<clipPath id="clip0">
<rect width="62" height="63" fill="white"/>
</clipPath>
<clipPath id="clip1">
<rect width="72" height="63" fill="white" transform="translate(95)"/>
</clipPath>
<clipPath id="clip2">
<rect width="77" height="63" fill="white" transform="translate(184)"/>
</clipPath>
</defs>
</svg>
