<svg width="240" height="28" viewBox="0 0 240 28" fill="none" xmlns="http://www.w3.org/2000/svg">
<g clip-path="url(#clip0)">
<g filter="url(#filter0_d)">
<path d="M1.7515 8.75805H8.77649V1.75025C8.77649 0.784222 9.55867 0 10.5244 0H17.516C18.4801 0 19.2621 0.784022 19.2621 1.75025V8.75645H26.2503C27.2178 8.75645 28 9.53887 28 10.5067V17.5093C28 18.4789 27.2178 19.263 26.2503 19.263H19.2621V26.2498C19.2621 27.2176 18.4799 28 17.516 28H10.5244C9.55867 28 8.77649 27.2176 8.77649 26.2498V19.263H1.7515C0.783976 19.263 0 18.4789 0 17.5093V10.5067C0 9.54047 0.783976 8.75805 1.7515 8.75805Z" fill="url(#paint0_linear)"/>
</g>
<path d="M53.8896 5.51V19H51.2866V13.243H45.1686V19H42.5466V5.51H45.1686V10.963H51.2866V5.51H53.8896ZM60.9069 19.19C59.8302 19.19 58.8992 18.9557 58.1139 18.487C57.3412 18.0183 56.7395 17.3977 56.3089 16.625C55.8782 15.8397 55.6629 14.991 55.6629 14.079C55.6629 13.1417 55.8719 12.2803 56.2899 11.495C56.7205 10.697 57.3285 10.0637 58.1139 9.595C58.8992 9.11367 59.8365 8.873 60.9259 8.873C62.0152 8.873 62.9462 9.11367 63.7189 9.595C64.4915 10.0637 65.0805 10.6907 65.4859 11.476C65.9039 12.2487 66.1129 13.0847 66.1129 13.984C66.1129 14.3133 66.0939 14.5983 66.0559 14.839H58.3609C58.4242 15.6117 58.7092 16.2197 59.2159 16.663C59.7352 17.1063 60.3305 17.328 61.0019 17.328C61.5085 17.328 61.9835 17.2077 62.4269 16.967C62.8829 16.7137 63.1932 16.3843 63.3579 15.979L65.5429 16.587C65.1755 17.347 64.5865 17.974 63.7759 18.468C62.9652 18.9493 62.0089 19.19 60.9069 19.19ZM58.3039 13.224H63.5099C63.4339 12.4767 63.1489 11.875 62.6549 11.419C62.1735 10.9503 61.5845 10.716 60.8879 10.716C60.2039 10.716 59.6149 10.9503 59.1209 11.419C58.6395 11.875 58.3672 12.4767 58.3039 13.224ZM66.9799 16.055C66.9799 15.409 67.1572 14.8453 67.5119 14.364C67.8792 13.87 68.3859 13.49 69.0319 13.224C69.6779 12.958 70.4189 12.825 71.2549 12.825C71.6729 12.825 72.0972 12.863 72.5279 12.939C72.9585 13.0023 73.3322 13.0973 73.6489 13.224V12.692C73.6489 12.0587 73.4589 11.571 73.0789 11.229C72.7115 10.887 72.1605 10.716 71.4259 10.716C70.8812 10.716 70.3619 10.811 69.8679 11.001C69.3739 11.191 68.8545 11.4697 68.3099 11.837L67.4929 10.165C68.1515 9.73433 68.8229 9.41133 69.5069 9.196C70.2035 8.98067 70.9319 8.873 71.6919 8.873C73.1105 8.873 74.2125 9.22767 74.9979 9.937C75.7959 10.6463 76.1949 11.6597 76.1949 12.977V16.15C76.1949 16.4287 76.2392 16.625 76.3279 16.739C76.4166 16.8403 76.5749 16.9037 76.8029 16.929V19C76.5749 19.0507 76.3659 19.0823 76.1759 19.095C75.9985 19.1203 75.8466 19.133 75.7199 19.133C75.2132 19.133 74.8269 19.019 74.5609 18.791C74.2949 18.563 74.1365 18.2843 74.0859 17.955L74.0289 17.442C73.5856 18.012 73.0409 18.449 72.3949 18.753C71.7615 19.0443 71.1092 19.19 70.4379 19.19C69.7665 19.19 69.1712 19.057 68.6519 18.791C68.1325 18.5123 67.7209 18.1387 67.4169 17.67C67.1255 17.1887 66.9799 16.6503 66.9799 16.055ZM73.1739 16.568C73.4905 16.264 73.6489 15.9727 73.6489 15.694V14.687C72.9902 14.421 72.3252 14.288 71.6539 14.288C70.9825 14.288 70.4379 14.4337 70.0199 14.725C69.6019 15.0037 69.3929 15.3773 69.3929 15.846C69.3929 16.226 69.5449 16.568 69.8489 16.872C70.1529 17.176 70.5899 17.328 71.1599 17.328C71.5399 17.328 71.9072 17.2583 72.2619 17.119C72.6292 16.9797 72.9332 16.796 73.1739 16.568ZM78.555 5.13H81.101V15.808C81.101 16.2767 81.177 16.587 81.329 16.739C81.481 16.891 81.69 16.967 81.956 16.967C82.1587 16.967 82.3677 16.9417 82.583 16.891C82.7984 16.8403 82.9884 16.777 83.153 16.701L83.495 18.639C83.153 18.8037 82.754 18.9303 82.298 19.019C81.842 19.1077 81.4304 19.152 81.063 19.152C80.265 19.152 79.6444 18.943 79.201 18.525C78.7704 18.0943 78.555 17.4863 78.555 16.701V5.13ZM90.459 18.487C90.117 18.639 89.6927 18.791 89.186 18.943C88.692 19.095 88.179 19.171 87.647 19.171C87.1783 19.171 86.7477 19.0887 86.355 18.924C85.9623 18.7593 85.6457 18.4997 85.405 18.145C85.177 17.7777 85.063 17.3027 85.063 16.72V11.001H83.752V9.044H85.063V5.814H87.609V9.044H89.699V11.001H87.609V15.865C87.609 16.207 87.6977 16.454 87.875 16.606C88.065 16.758 88.293 16.834 88.559 16.834C88.825 16.834 89.0847 16.7897 89.338 16.701C89.5913 16.6123 89.794 16.5363 89.946 16.473L90.459 18.487ZM101.038 19H98.492V13.414C98.492 12.6413 98.34 12.065 98.036 11.685C97.7446 11.305 97.3393 11.115 96.82 11.115C96.5033 11.115 96.174 11.2037 95.832 11.381C95.5026 11.5583 95.1986 11.8053 94.92 12.122C94.654 12.426 94.4576 12.7807 94.331 13.186V19H91.785V5.13H94.331V10.887C94.6983 10.2537 95.1986 9.75967 95.832 9.405C96.4653 9.05033 97.1556 8.873 97.903 8.873C98.7516 8.873 99.404 9.063 99.86 9.443C100.316 9.823 100.626 10.3107 100.791 10.906C100.956 11.5013 101.038 12.1283 101.038 12.787V19ZM108.063 19V5.51H110.685V19H108.063ZM128.719 19H126.173V13.414C126.173 12.6287 126.033 12.0523 125.755 11.685C125.489 11.305 125.115 11.115 124.634 11.115C124.127 11.115 123.652 11.3113 123.209 11.704C122.765 12.084 122.449 12.5843 122.259 13.205V19H119.713V13.414C119.713 12.616 119.573 12.0333 119.295 11.666C119.029 11.2987 118.655 11.115 118.174 11.115C117.68 11.115 117.205 11.305 116.749 11.685C116.305 12.065 115.989 12.5653 115.799 13.186V19H113.253V9.044H115.552V10.887C115.919 10.241 116.419 9.747 117.053 9.405C117.699 9.05033 118.433 8.873 119.257 8.873C120.08 8.873 120.72 9.07567 121.176 9.481C121.644 9.88633 121.942 10.3867 122.069 10.982C122.461 10.298 122.974 9.77867 123.608 9.424C124.241 9.05667 124.95 8.873 125.736 8.873C126.356 8.873 126.857 8.987 127.237 9.215C127.629 9.43033 127.933 9.728 128.149 10.108C128.364 10.4753 128.51 10.8933 128.586 11.362C128.674 11.8307 128.719 12.3057 128.719 12.787V19ZM136.901 19.19C136.116 19.19 135.432 19.0127 134.849 18.658C134.267 18.3033 133.811 17.8347 133.481 17.252V23.047H130.935V9.044H133.158V10.754C133.526 10.1713 134.001 9.71533 134.583 9.386C135.179 9.044 135.85 8.873 136.597 8.873C137.497 8.873 138.295 9.10733 138.991 9.576C139.688 10.032 140.239 10.6527 140.644 11.438C141.05 12.2107 141.252 13.0657 141.252 14.003C141.252 14.9783 141.062 15.8587 140.682 16.644C140.315 17.4167 139.802 18.0373 139.143 18.506C138.497 18.962 137.75 19.19 136.901 19.19ZM136.046 17.024C136.566 17.024 137.015 16.8847 137.395 16.606C137.788 16.3147 138.092 15.941 138.307 15.485C138.535 15.0163 138.649 14.5223 138.649 14.003C138.649 13.4457 138.529 12.9453 138.288 12.502C138.048 12.046 137.718 11.6913 137.3 11.438C136.895 11.172 136.426 11.039 135.894 11.039C135.413 11.039 134.932 11.1973 134.45 11.514C133.969 11.8307 133.646 12.2297 133.481 12.711V15.048C133.709 15.6053 134.058 16.074 134.526 16.454C134.995 16.834 135.502 17.024 136.046 17.024ZM148.905 11.248C148.133 11.248 147.442 11.4 146.834 11.704C146.226 11.9953 145.789 12.4197 145.523 12.977V19H142.977V9.044H145.314V11.172C145.656 10.488 146.1 9.94967 146.644 9.557C147.202 9.16433 147.784 8.949 148.392 8.911C148.658 8.911 148.829 8.91733 148.905 8.93V11.248ZM154.793 19.19C153.704 19.19 152.766 18.9557 151.981 18.487C151.208 18.0057 150.613 17.3723 150.195 16.587C149.777 15.8017 149.568 14.953 149.568 14.041C149.568 13.1163 149.777 12.2613 150.195 11.476C150.626 10.6907 151.227 10.0637 152 9.595C152.785 9.11367 153.716 8.873 154.793 8.873C155.87 8.873 156.794 9.11367 157.567 9.595C158.352 10.0637 158.954 10.6907 159.372 11.476C159.79 12.2613 159.999 13.1163 159.999 14.041C159.999 14.953 159.79 15.8017 159.372 16.587C158.954 17.3723 158.352 18.0057 157.567 18.487C156.794 18.9557 155.87 19.19 154.793 19.19ZM152.19 14.041C152.19 14.6237 152.304 15.143 152.532 15.599C152.76 16.0423 153.07 16.3907 153.463 16.644C153.856 16.8973 154.299 17.024 154.793 17.024C155.274 17.024 155.711 16.8973 156.104 16.644C156.497 16.378 156.807 16.0233 157.035 15.58C157.276 15.124 157.396 14.6047 157.396 14.022C157.396 13.452 157.276 12.9453 157.035 12.502C156.807 12.046 156.497 11.6913 156.104 11.438C155.711 11.172 155.274 11.039 154.793 11.039C154.299 11.039 153.856 11.172 153.463 11.438C153.07 11.6913 152.76 12.046 152.532 12.502C152.304 12.9453 152.19 13.4583 152.19 14.041ZM164.063 19L160.396 9.044H163.037L165.545 16.682L168.072 9.044H170.485L166.837 19H164.063ZM176.113 19.19C175.036 19.19 174.105 18.9557 173.32 18.487C172.547 18.0183 171.946 17.3977 171.515 16.625C171.084 15.8397 170.869 14.991 170.869 14.079C170.869 13.1417 171.078 12.2803 171.496 11.495C171.927 10.697 172.535 10.0637 173.32 9.595C174.105 9.11367 175.043 8.873 176.132 8.873C177.221 8.873 178.152 9.11367 178.925 9.595C179.698 10.0637 180.287 10.6907 180.692 11.476C181.11 12.2487 181.319 13.0847 181.319 13.984C181.319 14.3133 181.3 14.5983 181.262 14.839H173.567C173.63 15.6117 173.915 16.2197 174.422 16.663C174.941 17.1063 175.537 17.328 176.208 17.328C176.715 17.328 177.19 17.2077 177.633 16.967C178.089 16.7137 178.399 16.3843 178.564 15.979L180.749 16.587C180.382 17.347 179.793 17.974 178.982 18.468C178.171 18.9493 177.215 19.19 176.113 19.19ZM173.51 13.224H178.716C178.64 12.4767 178.355 11.875 177.861 11.419C177.38 10.9503 176.791 10.716 176.094 10.716C175.41 10.716 174.821 10.9503 174.327 11.419C173.846 11.875 173.573 12.4767 173.51 13.224ZM198.336 19H195.79V13.414C195.79 12.6287 195.651 12.0523 195.372 11.685C195.106 11.305 194.732 11.115 194.251 11.115C193.744 11.115 193.269 11.3113 192.826 11.704C192.383 12.084 192.066 12.5843 191.876 13.205V19H189.33V13.414C189.33 12.616 189.191 12.0333 188.912 11.666C188.646 11.2987 188.272 11.115 187.791 11.115C187.297 11.115 186.822 11.305 186.366 11.685C185.923 12.065 185.606 12.5653 185.416 13.186V19H182.87V9.044H185.169V10.887C185.536 10.241 186.037 9.747 186.67 9.405C187.316 9.05033 188.051 8.873 188.874 8.873C189.697 8.873 190.337 9.07567 190.793 9.481C191.262 9.88633 191.559 10.3867 191.686 10.982C192.079 10.298 192.592 9.77867 193.225 9.424C193.858 9.05667 194.568 8.873 195.353 8.873C195.974 8.873 196.474 8.987 196.854 9.215C197.247 9.43033 197.551 9.728 197.766 10.108C197.981 10.4753 198.127 10.8933 198.203 11.362C198.292 11.8307 198.336 12.3057 198.336 12.787V19ZM205.17 19.19C204.093 19.19 203.162 18.9557 202.377 18.487C201.604 18.0183 201.002 17.3977 200.572 16.625C200.141 15.8397 199.926 14.991 199.926 14.079C199.926 13.1417 200.135 12.2803 200.553 11.495C200.983 10.697 201.591 10.0637 202.377 9.595C203.162 9.11367 204.099 8.873 205.189 8.873C206.278 8.873 207.209 9.11367 207.982 9.595C208.754 10.0637 209.343 10.6907 209.749 11.476C210.167 12.2487 210.376 13.0847 210.376 13.984C210.376 14.3133 210.357 14.5983 210.319 14.839H202.624C202.687 15.6117 202.972 16.2197 203.479 16.663C203.998 17.1063 204.593 17.328 205.265 17.328C205.771 17.328 206.246 17.2077 206.69 16.967C207.146 16.7137 207.456 16.3843 207.621 15.979L209.806 16.587C209.438 17.347 208.849 17.974 208.039 18.468C207.228 18.9493 206.272 19.19 205.17 19.19ZM202.567 13.224H207.773C207.697 12.4767 207.412 11.875 206.918 11.419C206.436 10.9503 205.847 10.716 205.151 10.716C204.467 10.716 203.878 10.9503 203.384 11.419C202.902 11.875 202.63 12.4767 202.567 13.224ZM221.18 19H218.634V13.414C218.634 12.616 218.494 12.0333 218.216 11.666C217.937 11.2987 217.551 11.115 217.057 11.115C216.715 11.115 216.366 11.2037 216.012 11.381C215.67 11.5583 215.359 11.8053 215.081 12.122C214.802 12.426 214.599 12.7807 214.473 13.186V19H211.927V9.044H214.226V10.887C214.593 10.2663 215.125 9.77867 215.822 9.424C216.518 9.05667 217.304 8.873 218.178 8.873C218.798 8.873 219.305 8.987 219.698 9.215C220.09 9.43033 220.394 9.728 220.61 10.108C220.825 10.4753 220.971 10.8933 221.047 11.362C221.135 11.8307 221.18 12.3057 221.18 12.787V19ZM229.304 18.487C228.962 18.639 228.537 18.791 228.031 18.943C227.537 19.095 227.024 19.171 226.492 19.171C226.023 19.171 225.592 19.0887 225.2 18.924C224.807 18.7593 224.49 18.4997 224.25 18.145C224.022 17.7777 223.908 17.3027 223.908 16.72V11.001H222.597V9.044H223.908V5.814H226.454V9.044H228.544V11.001H226.454V15.865C226.454 16.207 226.542 16.454 226.72 16.606C226.91 16.758 227.138 16.834 227.404 16.834C227.67 16.834 227.929 16.7897 228.183 16.701C228.436 16.6123 228.639 16.5363 228.791 16.473L229.304 18.487ZM234.297 19.19C233.448 19.19 232.637 19.0507 231.865 18.772C231.092 18.4933 230.427 18.0817 229.87 17.537L230.782 15.884C231.377 16.3653 231.96 16.72 232.53 16.948C233.1 17.176 233.657 17.29 234.202 17.29C234.696 17.29 235.088 17.2013 235.38 17.024C235.684 16.8467 235.836 16.5807 235.836 16.226C235.836 15.8587 235.652 15.6117 235.285 15.485C234.917 15.3457 234.404 15.1747 233.746 14.972C233.011 14.744 232.397 14.5097 231.903 14.269C231.409 14.0283 231.035 13.737 230.782 13.395C230.541 13.053 230.421 12.6097 230.421 12.065C230.421 11.0897 230.788 10.3107 231.523 9.728C232.257 9.14533 233.233 8.854 234.449 8.854C235.158 8.854 235.829 8.968 236.463 9.196C237.096 9.41133 237.672 9.766 238.192 10.26L237.166 11.875C236.19 11.115 235.247 10.735 234.335 10.735C233.929 10.735 233.568 10.811 233.252 10.963C232.948 11.115 232.796 11.381 232.796 11.761C232.796 12.1157 232.941 12.369 233.233 12.521C233.537 12.673 233.993 12.8377 234.601 13.015C235.386 13.2557 236.051 13.49 236.596 13.718C237.153 13.946 237.571 14.2373 237.85 14.592C238.141 14.9467 238.287 15.428 238.287 16.036C238.287 17.024 237.926 17.7967 237.204 18.354C236.482 18.9113 235.513 19.19 234.297 19.19Z" fill="white"/>
</g>
<defs>
<filter id="filter0_d" x="-6" y="-3" width="40" height="40" filterUnits="userSpaceOnUse" color-interpolation-filters="sRGB">
<feFlood flood-opacity="0" result="BackgroundImageFix"/>
<feColorMatrix in="SourceAlpha" type="matrix" values="0 0 0 0 0 0 0 0 0 0 0 0 0 0 0 0 0 0 127 0"/>
<feOffset dy="3"/>
<feGaussianBlur stdDeviation="3"/>
<feColorMatrix type="matrix" values="0 0 0 0 0.803922 0 0 0 0 0.176471 0 0 0 0 0.25098 0 0 0 0.54512 0"/>
<feBlend mode="normal" in2="BackgroundImageFix" result="effect1_dropShadow"/>
<feBlend mode="normal" in="SourceGraphic" in2="effect1_dropShadow" result="shape"/>
</filter>
<linearGradient id="paint0_linear" x1="0" y1="0" x2="0" y2="28" gradientUnits="userSpaceOnUse">
<stop stop-color="#F5515F"/>
<stop offset="1" stop-color="#9F041B"/>
</linearGradient>
<clipPath id="clip0">
<rect width="240" height="28" fill="white"/>
</clipPath>
</defs>
</svg>
